<svg id="Слой_1" data-name="Слой 1" xmlns="http://www.w3.org/2000/svg" viewBox="0 0 112.09 183.51"><defs><style>.cls-1{fill:#007042;}</style></defs><g id="Слой_1-2" data-name="Слой 1-2"><path class="cls-1" d="M108.8,161c0-3.4.2-3.9,1.5-3.9a2.23,2.23,0,0,1,.47,0,17.55,17.55,0,0,0-.09-7.67,2.25,2.25,0,0,1-.38,0c-1.3,0-1.5-.5-1.5-3.9s.2-3.9,1.5-3.9a1.72,1.72,0,0,1,.74.13,10.38,10.38,0,0,0,.37-8.19,1.16,1.16,0,0,1-1.11.46c-1.3,0-1.5-.5-1.5-3.9s.2-3.9,1.5-3.9l.36,0c.75-2.58,1.41-5.17.39-7.75a1.8,1.8,0,0,1-.75.13c-1.3,0-1.5-.5-1.5-3.9s.2-3.9,1.5-3.9a2.26,2.26,0,0,1,.55.06c.18-2.62-.41-5.09-.7-7.76-1.16,0-1.35-.63-1.35-3.8s.2-3.8,1.5-3.8c.91,0,1.28.25,1.42,1.51.52-3.24-.33-6.17-.62-9.45a1.71,1.71,0,0,1-.8.14c-1.3,0-1.5-.5-1.5-3.8s.2-3.8,1.5-3.8a2,2,0,0,1,.7.1v-8a2,2,0,0,1-.7.1c-1.3,0-1.5-.5-1.5-3.8,0-3,.17-3.7,1.2-3.79V57c-1-.09-1.2-.77-1.2-3.79,0-3.3.2-3.8,1.5-3.8h.24a65.27,65.27,0,0,0,.45-7.9,2.26,2.26,0,0,1-.69.09c-1.3,0-1.5-.5-1.5-3.8s.2-3.8,1.5-3.8a2,2,0,0,1,.7.1v-8a2,2,0,0,1-.7.1c-1.3,0-1.5-.5-1.5-3.8s.2-3.9,1.6-3.9a2.06,2.06,0,0,1,.6.07V10.81a1.72,1.72,0,0,1-.9.19c-1.3,0-1.5-.5-1.5-3.2A10.32,10.32,0,0,0,107,2.4c-1.4-2-2-2.2-6.1-2.2-3.9,0-4.6.2-5,1.5-1.2,3.5-5.6,3.8-7.8.3C87.1.4,86.4.1,83.1.1s-4.2.3-6,2.3c-1.2,1.2-2.9,2.3-3.7,2.3s-2.3-1.1-3.2-2.3C68.7.3,68.1.1,64.4.1c-2.8,0-4.2.3-4.5,1.1a6.89,6.89,0,0,1-2.4,2.4c-2.4,1.6-4.8.9-6-1.6C50.7.4,50.1.1,46.2.1s-4.6.2-4.9,1.5c-1.2,3.5-6.7,3.7-8.2.3C32.3.3,31.7,0,28.1,0s-4.4.2-6.2,2.3c-1,1.2-2.5,2.3-3.1,2.3s-2.2-1.1-3.3-2.3C13.7.3,12.8,0,9.6.1S5.6.5,3,3.2.1,6.7.1,10c0,3.5.2,3.9,2.2,4.8a4.13,4.13,0,0,1,2.3,3c.2,1.9-.2,2.5-3.3,5.2C.5,23.6.1,25.3.1,28c0,3.4.2,4.2,1.7,4.8C4.1,33.9,5,35.6,4.4,38A3.69,3.69,0,0,1,2,40.6C.2,41,.1,41.3.1,45.9S.3,50.7,2,51.2a3.23,3.23,0,0,1,2.4,2.5A4.21,4.21,0,0,1,1.8,59C.3,59.6.1,60.3.1,64.2S.3,68.7,2,69.5a4.59,4.59,0,0,1,2.4,2.7c.5,2.1-1.5,5.6-3.2,5.6C.4,77.8,0,78.8,0,82c0,3.6.2,4.4,1.9,5.5,3.5,2.2,3.2,7.2-.4,8.4C.3,96.3.1,97.1.1,101c0,3.3.3,4.5,1,4.5,1.5,0,3.6,2.6,3.6,4.5,0,.9-1,2.4-2.3,3.4C.3,114.9.1,115.5.1,119.2c0,3.4.3,4.2,1.8,4.9,3.7,2,3.9,5.6.5,7.5C.2,132.8.1,133.2.1,137.7c0,3.7.2,4.9,1.1,4.9,1.8,0,3.5,2.2,3.5,4.3,0,1.3-.7,2.3-2.3,3.2C.2,151.3.1,151.7.1,155.8s.2,4.5,2.2,5.4c1.6.8,2.1,1.5,2.1,3.6,0,1.8-.5,2.9-1.5,3.5C.6,169.6.2,170.4.2,174.2c0,3,.3,3.7,2.3,5.2,1.3,1,2.3,2.2,2.3,2.9,0,1.6,8.9,1.6,9.5.1a7.47,7.47,0,0,1,2.5-2.5,4.08,4.08,0,0,1,5.6.8c.2.4.4.7.6,1.1.4,1.4,1.2,1.6,4.6,1.6s4.5-.3,6.4-2.3c1.3-1.3,3.1-2.3,3.9-2.3s2.3,1,3.3,2.3c1.5,2.1,2.2,2.3,5.6,2.3s4.1-.2,4.8-1.9a5.09,5.09,0,0,1,2.8-2.4c1.6-.4,2.5,0,4.5,1.9s3.1,2.4,6.1,2.4,3.8-.3,4.8-1.9c1.7-2.6,4.5-3.2,6.5-1.5a4.07,4.07,0,0,1,1.5,2.5c0,.7,1.2,1,4.5,1,4.1,0,4.6-.2,6.2-2.3a4.73,4.73,0,0,1,3.5-2.3,5.86,5.86,0,0,1,3.8,2.3c1.7,2,2.5,2.3,5.7,2.3s4-.3,5.5-2.3a9.59,9.59,0,0,0,1.7-5.4c0-2.36.19-3,1.3-3.09v-7.82C109,164.79,108.8,164.12,108.8,161Z" transform="translate(0 0)"/></g></svg>