<?xml version="1.0" encoding="utf-8"?>
<!-- Generator: Adobe Illustrator 24.1.2, SVG Export Plug-In . SVG Version: 6.00 Build 0)  -->
<svg version="1.1" id="Слой_1" xmlns="http://www.w3.org/2000/svg" xmlns:xlink="http://www.w3.org/1999/xlink" x="0px" y="0px"
	 viewBox="0 0 367.4 183.6" style="enable-background:new 0 0 367.4 183.6;" xml:space="preserve">
<style type="text/css">
	.st0{fill:#007042;}
	.st1{fill:none;stroke:#005330;stroke-width:5;stroke-miterlimit:10;}
	.st2{fill:none;stroke:#005330;stroke-width:2;stroke-miterlimit:10;stroke-dasharray:5,5;}
	.st3{fill:#005330;}
	.st4{font-family:'Archive';}
	.st5{font-size:24.7px;}
	.st6{font-size:83.93px;}
</style>
<path class="st0" d="M2.9,3.3C0.4,5.9,0,6.8,0,10.1c0,3.5,0.2,3.9,2.2,4.8c1.2,0.5,2.1,1.7,2.3,3c0.2,1.9-0.2,2.5-3.3,5.2
	c-0.8,0.6-1.2,2.3-1.2,5c0,3.4,0.2,4.2,1.7,4.8C4,34,4.9,35.7,4.3,38.1c-0.2,1.2-1.2,2.2-2.4,2.6C0.1,41.1,0,41.4,0,46
	s0.2,4.8,1.9,5.3c1.2,0.3,2.2,1.3,2.4,2.5C4.9,56.2,4,58,1.7,59.1C0.2,59.7,0,60.4,0,64.3c0,4,0.2,4.5,1.9,5.3
	c1.1,0.5,2,1.5,2.4,2.7c0.5,2.1-1.5,5.6-3.2,5.6c-0.8,0-1.2,1-1.2,4.2c0,3.6,0.2,4.4,1.9,5.5c3.5,2.2,3.2,7.2-0.4,8.4
	C0.2,96.4,0,97.2,0,101.1c0,3.3,0.3,4.5,1,4.5c1.5,0,3.6,2.6,3.6,4.5c0,0.9-1,2.4-2.3,3.4C0.2,115,0,115.6,0,119.3
	c0,3.4,0.3,4.2,1.8,4.9c3.7,2,3.9,5.6,0.5,7.5c-2.2,1.2-2.3,1.6-2.3,6.1c0,3.7,0.2,4.9,1.1,4.9c1.8,0,3.5,2.2,3.5,4.3
	c0,1.3-0.7,2.3-2.3,3.2c-2.2,1.2-2.3,1.6-2.3,5.7s0.2,4.5,2.2,5.4c1.6,0.8,2.1,1.5,2.1,3.6c0,1.8-0.5,2.9-1.5,3.5
	c-2.3,1.3-2.7,2.1-2.7,5.9c0,3,0.3,3.7,2.3,5.2c1.3,1,2.3,2.2,2.3,2.9c0,1.6,8.9,1.6,9.5,0.1c0.6-1,1.5-1.8,2.5-2.5
	c1.8-1.3,4.3-0.9,5.6,0.8c0.2,0.3,0.4,0.7,0.6,1.1c0.4,1.4,1.2,1.6,4.6,1.6s4.5-0.3,6.4-2.3c1.3-1.3,3.1-2.3,3.9-2.3s2.3,1,3.3,2.3
	c1.5,2.1,2.2,2.3,5.6,2.3s4.1-0.2,4.8-1.9c0.6-1.1,1.6-2,2.8-2.4c1.6-0.4,2.5,0,4.5,1.9s3.1,2.4,6.1,2.4s3.8-0.3,4.8-1.9
	c1.7-2.6,4.5-3.2,6.5-1.5c0.8,0.6,1.3,1.5,1.5,2.5c0,0.7,1.2,1,4.5,1c4.1,0,4.6-0.2,6.2-2.3c0.8-1.3,2.1-2.1,3.5-2.3
	c1.5,0.2,2.9,1.1,3.8,2.3c1.7,2,2.5,2.3,5.7,2.3c3.3,0,4-0.3,5.5-2.3c1.1-1.6,1.7-3.5,1.7-5.4c0-2.5,0.2-3.1,1.5-3.1
	s1.5,0.5,1.5,3.3c0,2.4,0.4,3.5,1.5,4.2c0.8,0.4,1.3,1.2,1.5,2.1c0,0.9,1,1.2,4.3,1.2c3.8,0,4.5-0.3,6.5-2.3
	c1.1-1.3,2.8-2.3,3.5-2.3s2.3,1,3.5,2.3c3.1,3.3,8,3.3,11.4,0c3.1-2.9,4.2-2.9,6.6,0c1.8,2,2.5,2.3,6.1,2.3c3.8,0,4.4-0.2,5.9-2.3
	c1-1.3,2.4-2.3,3.2-2.3s2.2,1,3.2,2.3c1.5,2.1,2.1,2.3,6,2.3s4.5-0.2,5.4-1.9c1.7-3.2,4.4-3.3,7.1-0.5c1.9,2,2.8,2.4,6,2.4
	c3,0,4-0.3,5.2-1.9c2.3-3.1,4.5-3.2,7.1-0.5c1.9,2,2.9,2.4,5.6,2.4s3.9-0.5,5.6-2.3c2.8-2.9,4.6-2.9,7.2,0c1.8,2,2.5,2.3,6.1,2.3
	c3.2,0,4.1-0.3,4.5-1.4c0.4-1.4,3.4-3.2,5-3.2c0.5,0,1.7,1,2.9,2.3c1.7,1.9,2.6,2.3,5.5,2.3s3.9-0.4,5.6-2.3c2.5-2.9,4.7-2.9,6.9,0
	c1.5,2,2.2,2.3,5.5,2.3s4-0.3,5.7-2.3c2.5-3,5.1-3,7.3,0c1.5,2.1,2.1,2.3,6.2,2.3c3.2,0,4.5-0.3,4.5-1c0.2-1,0.8-1.8,1.5-2.5
	c1.9-1.7,4.8-1.1,6.5,1.5c1.1,1.6,1.9,1.9,4.9,1.9s4.1-0.4,6.1-2.4s2.9-2.3,4.5-1.9c1.2,0.4,2.2,1.3,2.8,2.4
	c0.8,1.7,1.4,1.9,4.9,1.9c3.5,0,4.2-0.2,5.6-2.3c2.2-2.9,4.3-2.9,7.2,0c1.9,2,2.8,2.3,6.3,2.3c3.5,0,4.2-0.2,4.9-1.9
	c1.1-2.5,3.6-3.2,6-1.6c1,0.6,1.8,1.4,2.4,2.4c0.6,1.5,9.5,1.5,9.5-0.1c0-0.6,1.1-1.9,2.3-2.9c2-1.5,2.3-2.2,2.3-5.2
	c0-3.9-0.4-4.6-2.7-5.9c-1.1-0.6-1.5-1.7-1.5-3.5c0-2.1,0.5-2.8,2.1-3.6c1.9-0.9,2.1-1.4,2.1-5.4s-0.2-4.5-2.3-5.7
	c-1.6-0.9-2.3-1.9-2.3-3.2c0-2.1,1.8-4.3,3.5-4.3c0.8,0,1.1-1.2,1.1-4.9c0-4.5-0.2-4.9-2.3-6.1c-3.4-1.9-3.2-5.5,0.6-7.5
	c1.4-0.8,1.7-1.5,1.7-4.9c0-3.7-0.2-4.3-2.3-5.8c-1.4-1.1-2.3-2.5-2.3-3.5c0-1.9,2.2-4.3,3.7-4.3c0.6,0,0.9-1.6,0.9-4.5
	c0-3.9-0.2-4.7-1.5-5.1c-3.6-1.2-3.9-6.2-0.4-8.4c1.7-1.1,1.9-1.8,1.9-5.5c0-3.2-0.3-4.2-1.1-4.2c-1.7,0-3.7-3.5-3.2-5.6
	c0.4-1.2,1.3-2.2,2.4-2.7c1.8-0.8,1.9-1.3,1.9-5.3c0-3.8-0.2-4.6-1.7-5.2c-2.3-1.1-3.2-2.8-2.6-5.2c0.2-1.2,1.2-2.2,2.4-2.5
	c1.8-0.5,1.9-0.8,1.9-5.3s-0.1-4.8-1.9-5.3c-1.2-0.3-2.2-1.3-2.4-2.6c-0.6-2.4,0.3-4.2,2.6-5.2c1.5-0.6,1.7-1.4,1.7-4.8
	c0-3.8-0.2-4.2-3.5-7c-1.9-1.6-1.2-4.9,1.4-6.2c1.9-0.9,2.1-1.4,2.1-4.8S367,6,364.3,3.2c-2.8-2.8-3.5-3.1-6.6-3.1
	c-3.1,0-3.9,0.4-5.7,2.3c-2.7,2.9-4,2.9-6.4,0c-1.8-2.1-2.5-2.3-6.2-2.3s-4.2,0.2-5,1.9c-1.5,3.4-7.1,3.2-8.2-0.3
	c-0.4-1.3-1.2-1.5-4.9-1.5c-3.8,0-4.5,0.2-5.3,1.9c-1.2,2.5-3.6,3.2-6,1.6c-1-0.6-1.8-1.4-2.4-2.4c-0.2-0.8-1.6-1.1-4.5-1.1
	c-3.7,0-4.3,0.2-5.8,2.3c-2.1,2.9-4.2,2.9-6.9,0c-1.9-2-2.7-2.3-6-2.3s-4,0.3-5.1,1.9c-2.2,3.5-6.6,3.2-7.8-0.3
	c-0.4-1.3-1.2-1.5-5-1.5c-4,0-4.8,0.2-5.9,1.9c-2.2,3.4-6.5,3.2-7.6-0.4c-0.8-2.4-7.7-2.2-10.3,0.3c-3.2,2.9-6.6,3-7.9,0.1
	c-0.8-1.7-1.3-1.9-5.2-1.9c-4,0-4.4,0.1-5.6,2.3c-1.7,3-3.9,3-6.9,0c-1.9-1.9-2.9-2.3-6.1-2.3s-4.2,0.3-5.9,2.3
	c-2.4,2.9-3.7,2.9-6.2,0c-1.8-2-2.5-2.3-5.9-2.3s-4.2,0.3-5.9,2.3c-1.1,1.2-2.5,2.3-3.2,2.3s-2.1-1.1-3.1-2.3
	c-1.8-2-2.5-2.3-6.1-2.3c-3.8,0-4.4,0.2-5.9,2.3c-1,1.2-2.4,2.3-3.2,2.3s-2.2-1.1-3.2-2.3c-1.5-2.1-2.1-2.3-5.9-2.3
	c-3.6,0-4.3,0.3-6.1,2.3c-2.5,2.9-4.3,2.9-6.6,0c-1.5-2.1-2.1-2.3-5.7-2.3c-3.3,0-4.2,0.3-5.5,1.9c-2.3,3.1-4.6,3.2-7.1,0.5
	c-1.9-2-2.8-2.4-5.9-2.4c-4.8,0-8.1,3.1-8.1,7.8c0,2.5-0.2,3-1.5,3s-1.5-0.5-1.5-3.2c0-1.9-0.6-3.8-1.6-5.4c-1.4-2-2-2.2-6.1-2.2
	c-3.9,0-4.6,0.2-5,1.5c-1.2,3.5-5.6,3.8-7.8,0.3C87,0.5,86.3,0.2,83,0.2s-4.2,0.3-6,2.3c-1.2,1.2-2.9,2.3-3.7,2.3S71,3.7,70.1,2.5
	c-1.5-2.1-2.1-2.3-5.8-2.3c-2.8,0-4.2,0.3-4.5,1.1c-0.6,1-1.4,1.8-2.4,2.4c-2.4,1.6-4.8,0.9-6-1.6c-0.8-1.6-1.4-1.9-5.3-1.9
	s-4.6,0.2-4.9,1.5C40,5.2,34.5,5.4,33,2c-0.8-1.6-1.4-1.9-5-1.9s-4.4,0.2-6.2,2.3c-1,1.2-2.5,2.3-3.1,2.3s-2.2-1.1-3.3-2.3
	c-1.8-2-2.7-2.3-5.9-2.2S5.5,0.6,2.9,3.3z M111.7,22.5c0,3.3-0.2,3.8-1.5,3.8s-1.5-0.5-1.5-3.8s0.2-3.9,1.6-3.9
	S111.7,19.2,111.7,22.5z M111.7,37.9c0,3.3-0.2,3.8-1.5,3.8s-1.5-0.5-1.5-3.8s0.2-3.8,1.5-3.8S111.7,34.6,111.7,37.9z M111.7,53.3
	c0,3.3-0.2,3.8-1.5,3.8s-1.5-0.5-1.5-3.8s0.2-3.8,1.5-3.8S111.7,50,111.7,53.3z M111.7,68.7c0,3.3-0.2,3.8-1.5,3.8s-1.5-0.5-1.5-3.8
	s0.2-3.8,1.5-3.8S111.7,65.4,111.7,68.7z M111.7,84.1c0,3.3-0.2,3.8-1.5,3.8s-1.5-0.5-1.5-3.8s0.2-3.8,1.5-3.8
	S111.7,80.8,111.7,84.1z M111.7,99.5c0,3.3-0.2,3.8-1.5,3.8s-1.5-0.5-1.5-3.8s0.2-3.8,1.5-3.8S111.7,96.2,111.7,99.5z M111.7,114.9
	c0,3.3-0.2,3.9-1.5,3.9s-1.5-0.5-1.5-3.9s0.2-3.9,1.5-3.9S111.7,111.6,111.7,114.9z M111.7,130.3c0,3.3-0.2,3.9-1.5,3.9
	s-1.5-0.5-1.5-3.9c0-3.3,0.2-3.9,1.5-3.9S111.7,127,111.7,130.3L111.7,130.3z M111.7,145.7c0,3.3-0.2,3.9-1.5,3.9s-1.5-0.5-1.5-3.9
	s0.2-3.9,1.5-3.9S111.7,142.4,111.7,145.7L111.7,145.7z M111.7,161.1c0,3.3-0.2,3.9-1.5,3.9s-1.5-0.5-1.5-3.9s0.2-3.9,1.5-3.9
	S111.7,157.8,111.7,161.1L111.7,161.1z"/>
<path class="st1" d="M136.5,44h206.8c6.2,0,11.3,5,11.3,11.3v67.7c0,6.2-5,11.3-11.3,11.3H136.5c-6.2,0-11.3-5-11.3-11.3V55.3
	C125.3,49,130.3,44,136.5,44z"/>
<path class="st2" d="M132.6,143.5h213.2c4,0,7.3,3.3,7.3,7.4v13.3c0,4.1-3.3,7.4-7.3,7.4H132.6c-4,0-7.3-3.3-7.3-7.4v-13.3
	C125.3,146.8,128.6,143.5,132.6,143.5z"/>
<text transform="matrix(1.01 0 0 1 125.2798 34.3099)" class="st3 st4 st5">БОНУСНИЙ  КУПОН</text>
<text transform="matrix(1.01 0 0 1 140.6099 115.9398)" class="st3 st4 st6">150</text>
<path class="st3" d="M310.4,53.7c-4.6,0.7-8.8,3-11.7,6.6c-1.9,2.6-3.3,5.7-3.9,8.9c-0.2,1.6-0.2,1.7,1,2.3c1.5,0.6,3.1,1,4.6,1.2
	c4.7,0.7,4.7,0.7,4.7-0.5c0-1.7,2-5.5,3.6-6.8c3.1-2.6,9.5-3.1,13.6-1.1c4,2,6.1,6.4,5.1,10.7L327,77h-36.5v3.7c0,3,0.1,3.8,0.6,4
	c0.3,0.1,5.2,0.2,10.8,0.2c5.6,0,10.1,0.1,10.1,0.2s-1.7,0.6-3.6,1.1c-4.7,1.4-7.8,3-10.2,5.3c-2,2-2,2-4.4,2c-1,0-1.9,0.1-2.9,0.3
	c-0.3,0.2-0.4,1.2-0.2,3.8l0.3,3.5h2.4v3.1c0.1,11.2,7.2,18.7,19.1,20.4c5.9,0.8,12.6-0.6,16.7-3.4c4-2.6,6.7-6.6,7.7-11.2
	c0.6-3.1,0.1-3.7-3.4-4.5c-1.6-0.3-3.2-0.7-3.7-0.8c-0.7-0.1-0.9,0.1-1.6,2.2c-1,2.9-1.7,4-3.8,5.7c-2.2,1.9-3.8,2.5-7,2.8
	c-8.1,0.6-14.1-4.6-13.6-11.9l0.1-1.9h18.8h18.7v-3.7c0-3.6,0-3.7-0.8-4c-0.5-0.1-7.2-0.2-15-0.2s-14-0.1-13.9-0.3s2.9-1,6-1.9
	c6.4-1.8,10.4-3.5,12.4-5.3l1.3-1.2h4.5c1.7,0.1,3.3,0,4.9-0.3c0.3-0.2,0.5-1.7,0.6-4.2l0.1-3.8h-5.7l0.1-3.3
	c0.3-3.5-0.3-6.9-1.8-10.1c-2.6-5-7.4-8.5-13-9.4C317.6,53.3,314,53.2,310.4,53.7z"/>
</svg>
