<?xml version="1.0" encoding="utf-8"?>
<!-- Generator: Adobe Illustrator 24.1.2, SVG Export Plug-In . SVG Version: 6.00 Build 0)  -->
<svg version="1.1" xmlns="http://www.w3.org/2000/svg" xmlns:xlink="http://www.w3.org/1999/xlink" x="0px" y="0px"
	 viewBox="0 0 367.4 183.6" style="enable-background:new 0 0 367.4 183.6;" xml:space="preserve">
<style type="text/css">
	.st0{fill:#007042;}
	.st1{fill:none;stroke:#005330;stroke-width:5;stroke-miterlimit:10;}
	.st2{fill:none;stroke:#005330;stroke-width:2;stroke-miterlimit:10;stroke-dasharray:5,5;}
	.st3{fill:#005330;}
	.st4{font-family:'Archive';}
	.st5{font-size:24.7px;}
	.st6{font-size:83.93px;}
	.st7{display:none;}
	.st8{display:inline;}
	.st9{fill:#FFFFFF;}
</style>
<g id="Слой_1">
	<path class="st0" d="M2.9,3.3C0.4,5.9,0,6.8,0,10.1c0,3.5,0.2,3.9,2.2,4.8c1.2,0.5,2.1,1.7,2.3,3c0.2,1.9-0.2,2.5-3.3,5.2
		c-0.8,0.6-1.2,2.3-1.2,5c0,3.4,0.2,4.2,1.7,4.8C4,34,4.9,35.7,4.3,38.1c-0.2,1.2-1.2,2.2-2.4,2.6C0.1,41.1,0,41.4,0,46
		s0.2,4.8,1.9,5.3c1.2,0.3,2.2,1.3,2.4,2.5C4.9,56.2,4,58,1.7,59.1C0.2,59.7,0,60.4,0,64.3c0,4,0.2,4.5,1.9,5.3
		c1.1,0.5,2,1.5,2.4,2.7c0.5,2.1-1.5,5.6-3.2,5.6c-0.8,0-1.2,1-1.2,4.2c0,3.6,0.2,4.4,1.9,5.5C5.3,89.8,5,94.8,1.4,96
		C0.2,96.4,0,97.2,0,101.1c0,3.3,0.3,4.5,1,4.5c1.5,0,3.6,2.6,3.6,4.5c0,0.9-1,2.4-2.3,3.4C0.2,115,0,115.6,0,119.3
		c0,3.4,0.3,4.2,1.8,4.9c3.7,2,3.9,5.6,0.5,7.5c-2.2,1.2-2.3,1.6-2.3,6.1c0,3.7,0.2,4.9,1.1,4.9c1.8,0,3.5,2.2,3.5,4.3
		c0,1.3-0.7,2.3-2.3,3.2c-2.2,1.2-2.3,1.6-2.3,5.7s0.2,4.5,2.2,5.4c1.6,0.8,2.1,1.5,2.1,3.6c0,1.8-0.5,2.9-1.5,3.5
		c-2.3,1.3-2.7,2.1-2.7,5.9c0,3,0.3,3.7,2.3,5.2c1.3,1,2.3,2.2,2.3,2.9c0,1.6,8.9,1.6,9.5,0.1c0.6-1,1.5-1.8,2.5-2.5
		c1.8-1.3,4.3-0.9,5.6,0.8c0.2,0.3,0.4,0.7,0.6,1.1c0.4,1.4,1.2,1.6,4.6,1.6s4.5-0.3,6.4-2.3c1.3-1.3,3.1-2.3,3.9-2.3s2.3,1,3.3,2.3
		c1.5,2.1,2.2,2.3,5.6,2.3s4.1-0.2,4.8-1.9c0.6-1.1,1.6-2,2.8-2.4c1.6-0.4,2.5,0,4.5,1.9s3.1,2.4,6.1,2.4c3,0,3.8-0.3,4.8-1.9
		c1.7-2.6,4.5-3.2,6.5-1.5c0.8,0.6,1.3,1.5,1.5,2.5c0,0.7,1.2,1,4.5,1c4.1,0,4.6-0.2,6.2-2.3c0.8-1.3,2.1-2.1,3.5-2.3
		c1.5,0.2,2.9,1.1,3.8,2.3c1.7,2,2.5,2.3,5.7,2.3c3.3,0,4-0.3,5.5-2.3c1.1-1.6,1.7-3.5,1.7-5.4c0-2.5,0.2-3.1,1.5-3.1
		s1.5,0.5,1.5,3.3c0,2.4,1.2,5.4,2.3,6.1c0.8,0.4,1.7,1.4,5,1.4c3.8,0,4.5-0.3,6.5-2.3c1.1-1.3,2.8-2.3,3.5-2.3s2.3,1,3.5,2.3
		c3.1,3.3,8,3.3,11.4,0c3.1-2.9,4.2-2.9,6.6,0c1.8,2,2.5,2.3,6.1,2.3c3.8,0,4.4-0.2,5.9-2.3c1-1.3,2.4-2.3,3.2-2.3s2.2,1,3.2,2.3
		c1.5,2.1,2.1,2.3,6,2.3s4.5-0.2,5.4-1.9c1.7-3.2,4.4-3.3,7.1-0.5c1.9,2,2.8,2.4,6,2.4c3,0,4-0.3,5.2-1.9c2.3-3.1,4.5-3.2,7.1-0.5
		c1.9,2,2.9,2.4,5.6,2.4s3.9-0.5,5.6-2.3c2.8-2.9,4.6-2.9,7.2,0c1.8,2,2.5,2.3,6.1,2.3c3.2,0,4.1-0.3,4.5-1.4c0.4-1.4,3.4-3.2,5-3.2
		c0.5,0,1.7,1,2.9,2.3c1.7,1.9,2.6,2.3,5.5,2.3s3.9-0.4,5.6-2.3c2.5-2.9,4.7-2.9,6.9,0c1.5,2,2.2,2.3,5.5,2.3s4-0.3,5.7-2.3
		c2.5-3,5.1-3,7.3,0c1.5,2.1,2.1,2.3,6.2,2.3c3.2,0,4.5-0.3,4.5-1c0.2-1,0.8-1.8,1.5-2.5c1.9-1.7,4.8-1.1,6.5,1.5
		c1.1,1.6,1.9,1.9,4.9,1.9s4.1-0.4,6.1-2.4s2.9-2.3,4.5-1.9c1.2,0.4,2.2,1.3,2.8,2.4c0.8,1.7,1.4,1.9,4.9,1.9s4.2-0.2,5.6-2.3
		c2.2-2.9,4.3-2.9,7.2,0c1.9,2,2.8,2.3,6.3,2.3s4.2-0.2,4.9-1.9c1.1-2.5,3.6-3.2,6-1.6c1,0.6,1.8,1.4,2.4,2.4
		c0.6,1.5,9.5,1.5,9.5-0.1c0-0.6,1.1-1.9,2.3-2.9c2-1.5,2.3-2.2,2.3-5.2c0-3.9-0.4-4.6-2.7-5.9c-1.1-0.6-1.5-1.7-1.5-3.5
		c0-2.1,0.5-2.8,2.1-3.6c1.9-0.9,2.1-1.4,2.1-5.4s-0.2-4.5-2.3-5.7c-1.6-0.9-2.3-1.9-2.3-3.2c0-2.1,1.8-4.3,3.5-4.3
		c0.8,0,1.1-1.2,1.1-4.9c0-4.5-0.2-4.9-2.3-6.1c-3.4-1.9-3.2-5.5,0.6-7.5c1.4-0.8,1.7-1.5,1.7-4.9c0-3.7-0.2-4.3-2.3-5.8
		c-1.4-1.1-2.3-2.5-2.3-3.5c0-1.9,2.2-4.3,3.7-4.3c0.6,0,0.9-1.6,0.9-4.5c0-3.9-0.2-4.7-1.5-5.1c-3.6-1.2-3.9-6.2-0.4-8.4
		c1.7-1.1,1.9-1.8,1.9-5.5c0-3.2-0.3-4.2-1.1-4.2c-1.7,0-3.7-3.5-3.2-5.6c0.4-1.2,1.3-2.2,2.4-2.7c1.8-0.8,1.9-1.3,1.9-5.3
		c0-3.8-0.2-4.6-1.7-5.2c-2.3-1.1-3.2-2.8-2.6-5.2c0.2-1.2,1.2-2.2,2.4-2.5c1.8-0.5,1.9-0.8,1.9-5.3s-0.1-4.8-1.9-5.3
		c-1.2-0.3-2.2-1.3-2.4-2.6c-0.6-2.4,0.3-4.2,2.6-5.2c1.5-0.6,1.7-1.4,1.7-4.8c0-3.8-0.2-4.2-3.5-7c-1.9-1.6-1.2-4.9,1.4-6.2
		c1.9-0.9,2.1-1.4,2.1-4.8s-0.4-4.2-3.1-7c-2.8-2.8-3.5-3.1-6.6-3.1s-3.9,0.4-5.7,2.3c-2.7,2.9-4,2.9-6.4,0
		c-1.8-2.1-2.5-2.3-6.2-2.3s-4.2,0.2-5,1.9c-1.5,3.4-7.1,3.2-8.2-0.3c-0.4-1.3-1.2-1.5-4.9-1.5c-3.8,0-4.5,0.2-5.3,1.9
		c-1.2,2.5-3.6,3.2-6,1.6c-1-0.6-1.8-1.4-2.4-2.4c-0.2-0.8-1.6-1.1-4.5-1.1c-3.7,0-4.3,0.2-5.8,2.3c-2.1,2.9-4.2,2.9-6.9,0
		c-1.9-2-2.7-2.3-6-2.3s-4,0.3-5.1,1.9c-2.2,3.5-6.6,3.2-7.8-0.3c-0.4-1.3-1.2-1.5-5-1.5c-4,0-4.8,0.2-5.9,1.9
		c-2.2,3.4-6.5,3.2-7.6-0.4c-0.8-2.4-7.7-2.2-10.3,0.3c-3.2,2.9-6.6,3-7.9,0.1c-0.8-1.7-1.3-1.9-5.2-1.9c-4,0-4.4,0.1-5.6,2.3
		c-1.7,3-3.9,3-6.9,0c-1.9-1.9-2.9-2.3-6.1-2.3s-4.2,0.3-5.9,2.3c-2.4,2.9-3.7,2.9-6.2,0c-1.8-2-2.5-2.3-5.9-2.3s-4.2,0.3-5.9,2.3
		c-1.1,1.2-2.5,2.3-3.2,2.3s-2.1-1.1-3.1-2.3c-1.8-2-2.5-2.3-6.1-2.3c-3.8,0-4.4,0.2-5.9,2.3c-1,1.2-2.4,2.3-3.2,2.3
		s-2.2-1.1-3.2-2.3c-1.5-2.1-2.1-2.3-5.9-2.3c-3.6,0-4.3,0.3-6.1,2.3c-2.5,2.9-4.3,2.9-6.6,0c-1.5-2.1-2.1-2.3-5.7-2.3
		c-3.3,0-4.2,0.3-5.5,1.9c-2.3,3.1-4.6,3.2-7.1,0.5c-1.9-2-2.8-2.4-5.9-2.4c-4.8,0-8.1,3.1-8.1,7.8c0,2.5-0.2,3-1.5,3
		s-1.5-0.5-1.5-3.2c0-1.9-0.6-3.8-1.6-5.4c-1.4-2-2-2.2-6.1-2.2c-3.9,0-4.6,0.2-5,1.5c-1.2,3.5-5.6,3.8-7.8,0.3
		c-1-1.6-1.7-1.9-5-1.9s-4.2,0.3-6,2.3c-1.2,1.2-2.9,2.3-3.7,2.3S71,3.7,70.1,2.5c-1.5-2.1-2.1-2.3-5.8-2.3c-2.8,0-4.2,0.3-4.5,1.1
		c-0.6,1-1.4,1.8-2.4,2.4c-2.4,1.6-4.8,0.9-6-1.6c-0.8-1.6-1.4-1.9-5.3-1.9s-4.6,0.2-4.9,1.5C40,5.2,34.5,5.4,33,2
		c-0.8-1.6-1.4-1.9-5-1.9s-4.4,0.2-6.2,2.3c-1,1.2-2.5,2.3-3.1,2.3s-2.2-1.1-3.3-2.3c-1.8-2-2.7-2.3-5.9-2.2S5.5,0.6,2.9,3.3z
		 M111.7,22.5c0,3.3-0.2,3.8-1.5,3.8s-1.5-0.5-1.5-3.8s0.2-3.9,1.6-3.9S111.7,19.2,111.7,22.5z M111.7,37.9c0,3.3-0.2,3.8-1.5,3.8
		s-1.5-0.5-1.5-3.8s0.2-3.8,1.5-3.8S111.7,34.6,111.7,37.9z M111.7,53.3c0,3.3-0.2,3.8-1.5,3.8s-1.5-0.5-1.5-3.8s0.2-3.8,1.5-3.8
		S111.7,50,111.7,53.3z M111.7,68.7c0,3.3-0.2,3.8-1.5,3.8s-1.5-0.5-1.5-3.8s0.2-3.8,1.5-3.8S111.7,65.4,111.7,68.7z M111.7,84.1
		c0,3.3-0.2,3.8-1.5,3.8s-1.5-0.5-1.5-3.8s0.2-3.8,1.5-3.8S111.7,80.8,111.7,84.1z M111.7,99.5c0,3.3-0.2,3.8-1.5,3.8
		s-1.5-0.5-1.5-3.8s0.2-3.8,1.5-3.8S111.7,96.2,111.7,99.5z M111.7,114.9c0,3.3-0.2,3.9-1.5,3.9s-1.5-0.5-1.5-3.9s0.2-3.9,1.5-3.9
		S111.7,111.6,111.7,114.9z M111.7,130.3c0,3.3-0.2,3.9-1.5,3.9s-1.5-0.5-1.5-3.9c0-3.3,0.2-3.9,1.5-3.9S111.7,127,111.7,130.3
		L111.7,130.3z M111.7,145.7c0,3.3-0.2,3.9-1.5,3.9s-1.5-0.5-1.5-3.9s0.2-3.9,1.5-3.9S111.7,142.4,111.7,145.7L111.7,145.7z
		 M111.7,161.1c0,3.3-0.2,3.9-1.5,3.9s-1.5-0.5-1.5-3.9s0.2-3.9,1.5-3.9S111.7,157.8,111.7,161.1L111.7,161.1z"/>
	<path class="st1" d="M136.5,44h206.8c6.2,0,11.3,5,11.3,11.3V123c0,6.2-5,11.3-11.3,11.3H136.5c-6.2,0-11.3-5-11.3-11.3V55.3
		C125.3,49,130.3,44,136.5,44z"/>
	<path class="st2" d="M132.6,143.5h212c4,0,7.3,3.3,7.3,7.4v13.3c0,4.1-3.3,7.4-7.3,7.4h-212c-4,0-7.3-3.3-7.3-7.4v-13.3
		C125.3,146.8,128.6,143.5,132.6,143.5z"/>
	<text transform="matrix(1.01 0 0 1 125.2798 34.3099)" class="st3 st4 st5">БОНУСНИЙ  КУПОН</text>
	<text transform="matrix(1.01 0 0 1 140.6099 115.9398)" class="st3 st4 st6">150</text>
	<path class="st3" d="M310.4,53.7c-4.6,0.7-8.8,3-11.7,6.6c-1.9,2.6-3.3,5.7-3.9,8.9c-0.2,1.6-0.2,1.7,1,2.3c1.5,0.6,3.1,1,4.6,1.2
		c4.7,0.7,4.7,0.7,4.7-0.5c0-1.7,2-5.5,3.6-6.8c3.1-2.6,9.5-3.1,13.6-1.1c4,2,6.1,6.4,5.1,10.7l-0.4,2h-36.5v3.7c0,3,0.1,3.8,0.6,4
		c0.3,0.1,5.2,0.2,10.8,0.2c5.6,0,10.1,0.1,10.1,0.2s-1.7,0.6-3.6,1.1c-4.7,1.4-7.8,3-10.2,5.3c-2,2-2,2-4.4,2c-1,0-1.9,0.1-2.9,0.3
		c-0.3,0.2-0.4,1.2-0.2,3.8l0.3,3.5h2.4v3.1c0.1,11.2,7.2,18.7,19.1,20.4c5.9,0.8,12.6-0.6,16.7-3.4c4-2.6,6.7-6.6,7.7-11.2
		c0.6-3.1,0.1-3.7-3.4-4.5c-1.6-0.3-3.2-0.7-3.7-0.8c-0.7-0.1-0.9,0.1-1.6,2.2c-1,2.9-1.7,4-3.8,5.7c-2.2,1.9-3.8,2.5-7,2.8
		c-8.1,0.6-14.1-4.6-13.6-11.9l0.1-1.9h18.8h18.7v-3.7c0-3.6,0-3.7-0.8-4c-0.5-0.1-7.2-0.2-15-0.2s-14-0.1-13.9-0.3s2.9-1,6-1.9
		c6.4-1.8,10.4-3.5,12.4-5.3l1.3-1.2h4.5c1.7,0.1,3.3,0,4.9-0.3c0.3-0.2,0.5-1.7,0.6-4.2l0.1-3.8h-5.7l0.1-3.3
		c0.3-3.5-0.3-6.9-1.8-10.1c-2.6-5-7.4-8.5-13-9.4C317.6,53.3,314,53.2,310.4,53.7z"/>
</g>
<g id="Слой_2" class="st7">
	<g class="st8">
		<path class="st9" d="M70.9,93c0.3,0,0.4,0,0.5-0.3c0.2-0.4,0.2-0.4,0-0.7c-0.3-0.3-0.7-0.4-0.9-0.1C70.1,92.3,70.3,92.9,70.9,93z"
			/>
		<path class="st9" d="M63,85.5c0,0,0.1-0.1,0.3-0.3c0.1-0.2,0.4-0.6,0.6-0.8c0.4-0.4,0.5-0.4,1.6-0.8c3.5-1.1,6.1-1.7,8-2
			c1.8-0.2,3.4,0.5,5.3,2.4c1.1,1.1,1.1,1.1,0.8-0.5c-0.8-4.4-1.8-7-3.7-9.1c-1.4-1.5-2.5-2.3-6.3-4.2c-3.1-1.6-4-2.1-5.5-3.2
			c-1.8-1.3-2.7-2.3-3.9-4c-0.2-0.3-0.5-0.9-0.7-1.3L59.1,61l-0.3,0.5c-0.6,1-1.7,2.1-3,2.9c-1.3,0.8-3.5,1.7-6.5,2.5
			c-4.4,1.2-5.7,1.7-7.4,2.6c-3.6,1.8-5.7,4-7.5,7.5c-0.7,1.4-1.1,2.5-1.5,4c-0.3,1-0.8,3.5-0.8,3.8c0,0.1,0.4-0.2,0.8-0.7
			c1.3-1.3,2.5-2.1,3.6-2.4c0.7-0.2,2.1-0.2,3.2,0c1.5,0.3,7.3,1.9,7.8,2.2c0.3,0.2,0.7,0.6,0.9,1.1c0.1,0.3,0.3,0.5,0.3,0.5
			c0.1,0,0.1-0.1-0.1-0.6c-0.1-0.3-0.1-0.6-0.1-0.7c0-0.3,0.6,0.4,0.8,1c0.2,0.5,0.3,2,0.2,2.2c-0.1,0.1-0.2,0.1-0.8,0
			c-1.5-0.2-2.8-0.6-5.8-1.8c-2.9-1.1-3.7-1.4-4.7-1.6c-1.6-0.3-2.8-0.1-5,0.8c-0.6,0.3-1.2,0.5-1.2,0.5c-0.1,0.1-0.3,1.9-0.4,3.6
			c-0.3,4.1-0.3,7.2,0,9c0.3,2,1.3,4.7,2.8,8.3c1.2,2.8,3,7.2,3.5,8.7c0.5,1.6,0.9,3.1,1.2,4.9c0.3,1.7,0.4,2.5,0.4,4.6
			c0.1,2.2,0.1,2.4,0.7,3.3c1.3,1.7,4.4,5.1,6.2,6.6c2.4,2,3.6,2.8,5.5,3.3c2.2,0.6,3.6,0.7,5.3,0.5c3.2-0.4,4.9-1.1,7.3-3.1
			c2.2-1.8,6.7-6.6,7.3-8c0.2-0.5,0.2-0.5,0.3-2.7c0.2-5.6,0.8-8,4.5-16.6c2.4-5.7,3.2-8,3.6-10.4c0.2-1.4,0.1-6.5-0.2-10.6
			l-0.1-1.3l-1.2-0.5c-1.7-0.8-2.4-0.9-3.7-0.9c-1.3,0-2,0.2-4.9,1.2c-4.3,1.6-6.3,2.2-7.3,2.2l-0.5,0l-0.1-0.3
			c-0.2-0.7,0.2-2.3,0.8-2.8c0.3-0.3,0.3-0.2,0.1,0.5C63,85.3,62.9,85.5,63,85.5z M59.5,91.8c0.3-1.1,1.1-2.4,1.8-2.9
			c0.3-0.2,0.6-0.2,0.6-0.1c0,0-0.1,0.2-0.3,0.4c-0.7,0.9-1.8,3.5-2.1,5.2c-0.2,0.9-0.2,0.9-0.3,0.9c-0.1,0-0.1,0-0.1-0.1
			C59.1,94.7,59.4,92.2,59.5,91.8z M57.6,98.4c0-0.1,0.1-0.1,0.2,0c0.2,0.1,0.2,0.2,0,0.3C57.6,98.7,57.5,98.5,57.6,98.4z
			 M55.9,100.2c0.1,0,0.2,0.1,0.2,0.2c0,0.1-0.1,0.2-0.2,0.2c-0.2,0-0.2,0-0.2-0.2S55.7,100.2,55.9,100.2z M55.1,97.1
			c0.2-0.1,0.3-0.1,0.4,0.1c0.1,0.2-0.1,0.4-0.3,0.3C55,97.4,54.9,97.1,55.1,97.1z M53.5,102.5c0-0.1,0.1-0.1,0.1,0
			c0.1,0,0.1,0.1,0,0.1C53.6,102.7,53.5,102.6,53.5,102.5z M51.8,91.1c0.5,0.8,1.1,2.5,1.3,4c0.2,1.2,0.1,4.5,0,5.8
			c-0.2,1.2-0.6,2.9-0.8,3.4c-0.1,0.3-0.4,0.5-0.5,0.4c0,0,0-0.6,0.1-1.3c0.3-2.1,0.4-3.5,0.3-6.1c-0.1-2.5-0.2-4-0.5-5.5
			c-0.1-0.5-0.2-0.8-0.2-0.9C51.5,90.8,51.7,90.9,51.8,91.1z M51.4,110.3c0.1,0,0.4-0.1,0.7-0.1c0.6,0,1,0.2,2,0.9
			c1,0.7,1.2,0.8,1.9,0.8c0.6,0,1-0.1,1.8-0.7c1.2-0.8,1.7-1,2.3-0.8c0.5,0.1,0.7,0.4,0.6,0.6c-0.1,0.3-0.3,0.4-1,0.5
			c-0.8,0.1-0.9,0.2-1.6,0.8c-0.3,0.3-0.7,0.6-1,0.7c-0.9,0.5-2.1,0.3-3.3-0.7c-0.8-0.6-1-0.7-2.3-0.9c-0.3,0-0.4-0.1-0.5-0.3
			C50.9,110.6,51,110.4,51.4,110.3z M50.4,106.6c0,0-0.1,0.3-0.2,0.6c-0.5,1.3-0.6,2.6-0.2,3.6c0.2,0.5,0.4,0.8,1.1,1.2
			c0.5,0.3,0.5,0.4,0,0.3c-0.9-0.2-1.6-0.7-2-1.6c-0.5-1.1-0.1-2.9,0.8-3.9C50.2,106.5,50.4,106.4,50.4,106.6z M49.9,101.2
			c0-0.1,0.1-0.1,0.1,0c0.1,0,0.1,0.1,0,0.1C49.9,101.4,49.8,101.3,49.9,101.2z M49.2,99.1c0.1-0.1,0.1-0.1,0.2-0.1
			c0.3,0,0.4,0.5,0.1,0.6C49.3,99.8,49,99.4,49.2,99.1z M37.3,101.3c-0.4,0-0.5-0.4-0.2-0.6c0.2-0.2,0.2-0.2,0.4,0
			C37.8,100.9,37.7,101.3,37.3,101.3z M39.5,105.4c-0.3,0.1-0.6-0.2-0.3-0.5c0.1-0.1,0.1-0.1,0.2-0.1
			C39.7,104.9,39.8,105.3,39.5,105.4z M41.1,102.7c-0.2-0.2-0.3-0.3-0.1-0.5c0.2-0.2,0.5-0.2,0.6,0
			C41.8,102.6,41.4,102.9,41.1,102.7z M43.4,107.3c-0.3,0.2-0.6-0.2-0.4-0.5c0.1-0.1,0.2-0.1,0.3-0.1
			C43.6,106.7,43.7,107.1,43.4,107.3z M45,104c-0.2,0.3-0.4,0.3-0.5,0.2c-0.2-0.2-0.2-0.4,0-0.6C44.7,103.3,45.2,103.6,45,104z
			 M44.7,92c0.1,0.1,0.1,0.5,0.1,0.9c0,0.6,0,0.8-0.3,1.3c-0.3,0.6-0.7,1-1.4,1.3c-0.4,0.2-0.6,0.2-1.2,0.2c-0.6,0-0.8,0-1.3-0.2
			c-1.4-0.6-2.1-2.3-1.6-3.7c0-0.1,0-0.1-0.1-0.1c-0.3,0-1.4,0.6-1.9,1.1c-0.8,0.7-0.9,0.8-1.5,0.8c-0.8,0-1.6-0.4-2.2-1.1
			C33.2,92.2,33,92,33,91.9c0,0,0.2-0.1,0.5-0.2c0.7-0.2,1-0.4,2.1-1.1c1.5-1,2.9-1.6,4.4-1.8c0.2,0,1.1-0.1,1.9,0
			c1.3,0,1.5,0.1,2.2,0.3c1.5,0.5,2.6,1.1,3.7,2.2c0.7,0.6,0.9,0.9,0.7,0.9c0,0-0.3-0.2-0.6-0.4c-0.6-0.6-2.7-1.6-3.6-1.9
			c-1-0.3-3.7-0.3-3.5-0.1c0,0,0.5,0.1,1,0.1c0.5,0.1,1.2,0.2,1.6,0.3c0.7,0.2,2,0.8,2.7,1.2c0.9,0.6,3,2.8,3,3.1
			c0,0.1-0.6,0.3-1.6,0.4c-0.6,0.1-0.6,0-0.1-0.4c0.2-0.2,0.3-0.3,0.3-0.4c0-0.3-1.4-1.5-2.5-2.1C44.6,91.7,44.5,91.7,44.7,92z
			 M48.6,103.2c0,0.2-0.3,0.3-0.5,0.1c-0.1-0.1-0.1-0.1,0-0.3c0.1-0.1,0.2-0.2,0.2-0.2C48.5,102.8,48.6,103.1,48.6,103.2z
			 M46.2,101.2c-0.3,0.2-0.6-0.2-0.3-0.5c0.1-0.1,0.1-0.1,0.3,0C46.4,100.8,46.4,101.1,46.2,101.2z M60.4,126.5
			c-0.5,0.3-1.6,0.7-2.7,0.9c-1.2,0.2-3.3,0.1-4.5-0.2c-1.2-0.3-1.9-0.6-2.5-1.2c-0.5-0.5-0.5-0.7-0.2-0.7c0.1,0,0.6,0.1,1.1,0.3
			c1.4,0.5,2.1,0.6,3.6,0.6c2.1,0.1,3.6-0.2,5.3-0.8c0.4-0.1,0.7-0.3,0.8-0.3C61.7,125.1,61,126.1,60.4,126.5z M63.7,132.2
			c-0.7,0.3-1.3,0-1.5-0.7c-0.1-0.4-0.1-0.4,0.1-0.8c0.1-0.2,0.3-0.4,0.5-0.5c0.6-0.3,1.2-0.1,1.5,0.5
			C64.5,131.4,64.3,132,63.7,132.2z M66.8,121.5c-0.2,0.3-0.6,0.5-1,0.5c-0.2,0-0.7,0.1-1.3,0.2c-0.6,0.1-1.4,0.2-2.1,0.2
			c-1.7,0-3.6,0.1-4.9,0.3c-0.6,0.1-1.2,0.2-1.4,0.2c-0.2,0-0.9-0.1-1.5-0.2c-1.8-0.3-1.8-0.3-4.7-0.3c-2.3,0-2.9,0-3.3-0.2
			c-0.8-0.2-1.2-0.5-1.2-0.7c0-0.3,0.3-0.4,1.4-0.4c1.2,0,1.5-0.1,3.6-1.1c2.5-1.2,2.9-1.3,4.2-0.6c1.4,0.7,1.6,0.7,2.7,0.1
			c0.3-0.2,0.7-0.4,0.8-0.5c0.1-0.1,0.4-0.1,0.5-0.1c0.4,0,1.4,0.4,3,1.1c1.6,0.8,2.3,1,3.1,1.2c0.5,0.1,0.6,0.1,0.7-0.1
			c0.5-0.6,0.5-0.7,0.8-0.7c0.3,0,0.6,0.2,0.8,0.6C67,121.2,67,121.3,66.8,121.5z M63.2,103c0.1-0.1,0.2-0.2,0.2-0.2
			c0,0,0.1,0.1,0.2,0.2c0.1,0.1,0.1,0.2,0,0.3c-0.1,0.1-0.2,0.1-0.3,0.1s-0.2-0.1-0.3-0.1C63.1,103.2,63.1,103.2,63.2,103z
			 M65.5,100.7c0.2-0.1,0.2-0.1,0.4,0.1c0.2,0.2,0.2,0.2,0,0.4c-0.2,0.1-0.2,0.2-0.3,0.1C65.4,101.1,65.3,100.8,65.5,100.7z
			 M67.3,104.2c-0.2,0.1-0.2,0.1-0.4-0.1c-0.2-0.2-0.2-0.3,0-0.5c0.2-0.2,0.4-0.2,0.5,0C67.5,103.9,67.5,104.1,67.3,104.2z
			 M68.2,107.3c-0.2-0.1-0.2-0.4,0-0.5c0.2-0.1,0.4-0.1,0.5,0.1C68.9,107.2,68.5,107.5,68.2,107.3z M70.7,102.7l-0.2,0.2l-0.2-0.2
			l-0.2-0.2l0.2-0.2c0.1-0.1,0.2-0.2,0.3-0.2c0,0,0.1,0.1,0.3,0.2l0.2,0.2L70.7,102.7z M72.2,105.4c-0.2,0-0.3-0.2-0.2-0.5
			c0.1-0.2,0.5-0.2,0.5,0.1C72.6,105.3,72.5,105.5,72.2,105.4z M74.5,101.2c-0.4,0.2-0.7-0.3-0.3-0.6c0.2-0.1,0.2-0.1,0.4,0
			C74.8,100.8,74.8,101.1,74.5,101.2z M63.1,94.1c0.4-0.5,2.2-2.3,2.8-2.8c0.7-0.5,1.8-1,2.6-1.2c0.6-0.2,1.9-0.4,2.4-0.4
			c0.1,0,0.1,0,0.1-0.1c-0.1-0.1-1.2-0.2-1.9-0.1c-1.9,0.2-3.8,1-5.2,2c-0.4,0.3-0.7,0.5-0.7,0.5c-0.1-0.1,1.2-1.5,2.1-2.1
			c1.1-0.8,2.5-1.2,4-1.4c0.4,0,0.9-0.1,1.1,0c0.1,0,0.6,0.1,0.9,0.1c1.6,0.1,3.6,0.9,5,2c0.9,0.7,1.5,1,2.1,1
			c0.5,0.1,0.5,0.2,0,0.7c-0.5,0.5-1,0.8-1.7,1c-0.8,0.2-1.1,0.1-1.9-0.6c-0.6-0.5-1.9-1.3-2-1.2c0,0,0,0.2,0.1,0.5
			c0.1,0.3,0.1,0.6,0.1,1c-0.1,1.7-1.7,2.9-3.4,2.6C68,95.4,67,94.3,67,92.9c0-0.3,0-0.7,0.1-0.8c0-0.1,0.1-0.2,0-0.2
			c-0.1,0-1.5,0.9-2,1.2c-0.2,0.2-0.6,0.5-0.7,0.7l-0.2,0.4l0.3,0.3c0.2,0.2,0.4,0.3,0.4,0.3c0,0,0.1,0,0.1,0.1c0,0-0.1,0.1-0.3,0.1
			c-0.4,0-1.7-0.2-1.8-0.3C62.8,94.5,62.9,94.3,63.1,94.1z M62.9,109.8c-0.1,1-0.9,2.1-1.7,2.3c-1,0.3-1.2,0.2-0.5-0.2
			c0.5-0.3,0.8-0.6,1.1-1.3c0.3-0.5,0.3-0.6,0.3-1.5c0-0.9,0-1-0.5-2.4c0-0.1,0.1,0,0.3,0.2C62.5,107.8,63,109,62.9,109.8z
			 M62.3,99.6c0.1,0.2,0,0.4-0.2,0.4s-0.3-0.2-0.2-0.4C62,99.4,62.2,99.4,62.3,99.6z"/>
		<path class="st9" d="M43.2,91.9c-0.3-0.2-0.5-0.2-0.8,0c-0.3,0.3-0.4,0.6-0.1,0.9c0.1,0.2,0.3,0.2,0.5,0.2
			C43.4,93,43.7,92.2,43.2,91.9z"/>
		<path class="st9" d="M90.7,66.5l0.4,0.2l0.5-1c0.3-0.5,0.9-1.8,1.3-2.7c1.5-3.4,4.1-8.2,5.9-11c0.9-1.4,2.6-3.9,3.1-4.5
			c0.2-0.2,0.3-0.4,0.3-0.5c0-0.2-2.9,0-4.3,0.3c-4.7,1-8.5,2.5-12.9,5.3c-0.4,0.3-0.7,0.4-0.8,0.4c-0.1-0.1,0.6-2.2,1.2-3.9
			c0.8-2.2,1.9-5,2.6-6.5c0.6-1.2,2.8-5.4,3.1-5.9l0.2-0.2l-0.7,0.1c-3.8,0.3-8.3,1.7-12.5,3.8c-2.7,1.4-5.5,3.3-8.2,5.7
			c-0.8,0.7-1.1,0.8-1.1,0.5c0-0.2-2-5.7-3.7-10.6l-0.3-0.8l1.2-1.1c1.4-1.3,6-5.8,7.3-7l0.9-0.9l-0.3,0c-0.2,0-2.1-0.2-4.4-0.4
			c-2.2-0.2-5-0.4-6.1-0.5c-1.1-0.1-2.1-0.2-2.2-0.2c-0.1-0.1-2.7-5.7-3.7-8.1c-0.5-1.1-1-2.3-1.2-2.7l-0.4-0.8l-0.5,1.1
			c-0.6,1.2-2.2,4.9-3.8,8.4c-0.5,1.1-0.9,2.1-1,2.1c0,0-1,0.1-2.2,0.2c-1.2,0.1-3.1,0.2-4.2,0.3c-1.1,0.1-3,0.3-4.3,0.4
			c-1.2,0.1-2.2,0.2-2.3,0.2c0,0,0.2,0.2,0.4,0.5c0.3,0.2,2.2,2.1,4.2,4.1c2.1,2,3.9,3.8,4.2,4l0.4,0.4l-0.2,0.6
			c-0.1,0.3-0.5,1.3-0.8,2.1c-0.3,0.9-0.9,2.4-1.2,3.4c-0.4,1-1,2.7-1.3,3.7c-0.3,1-0.6,1.8-0.7,1.8c0,0-0.5-0.4-1-0.8
			c-1.5-1.3-2.4-2-4.1-3.2c-2.1-1.4-2.6-1.7-4.1-2.5c-3.2-1.6-7.2-3-10.1-3.5c-0.8-0.1-2.8-0.3-2.9-0.3c0,0,0.5,0.9,1.1,2
			c2.5,4.5,4.3,8.7,5.7,13.5c0.2,0.8,0.3,1,0.2,1c-0.1,0-0.4-0.2-0.8-0.5c-1.6-1-3.9-2.3-5.4-3c-1.5-0.6-4.3-1.6-5.6-1.9
			c-2.1-0.5-4.1-0.8-5.6-0.8H9.4l0.2,0.3c0.6,0.8,3.5,5.2,4.2,6.4c1.6,2.7,3.8,6.8,5.1,9.8c0.9,2,1.5,3.2,1.6,3.2
			c0,0,1.2-0.6,2.6-1.3c3.8-1.9,6.4-3,10.2-4.2c11-3.6,23.2-4.5,34.9-2.5c6.2,1,11.7,2.7,17.2,5.2C87.2,64.7,90.2,66.1,90.7,66.5z
			 M63.8,50.2c-3.9-0.4-5.3-0.4-8.9-0.4c-3,0-6.7,0.3-9.3,0.5c-0.3,0-0.5,0-0.5,0c0.1-0.2,2.1-1.8,4.8-3.9c1.1-0.9,2.9-2.2,4-3.1
			c1.1-0.8,2-1.5,2-1.5c0,0,0.2,0.1,0.3,0.2c0.2,0.1,1.1,0.8,2,1.6c1,0.7,2.3,1.7,2.9,2.2c0.6,0.5,1.6,1.3,2.2,1.7
			c0.6,0.5,1.3,1,1.6,1.3c0.3,0.2,0.8,0.6,1.1,0.9c0.3,0.3,0.6,0.5,0.6,0.5C66.5,50.5,66.4,50.5,63.8,50.2z"/>
		<path class="st9" d="M105.3,160.9c-0.7,1.3-0.6,1.3,0.1,0.2c0.5-0.7,4.2-4.3,5.4-7.3c0.9-1.8,2-8,1.5-9.8
			c-0.8-2.8-1.8-5.3-5.4-10.3c-0.7-1-1.6-2.2-1.9-2.7c-1.5-2.1-2.8-4.5-3.3-6.1c-0.8-2.5-0.9-5.3,0-9.1c0.3-1.3,1.1-4.9,1.6-6.6
			c0.6-2.2,1.1-5.3,1.2-7.7c0.2-2.9-0.1-6.5-1-9.9c-0.3-1.2-1.2-4-1.7-5.3c-0.8-1.9-2.1-4.5-3.2-6.2c-1.2-1.8-2.9-3.9-4.4-5.4
			c-1.2-1.2-1.7-1.6-1.8-1.4c0,0,0.1,0.3,0.3,0.5c0.8,1.2,3.1,5.1,3.7,6.4c2.9,5.8,4.3,11.4,4.3,17.2c0,4.1-0.4,6.8-2.1,12.7
			c-1.2,4.2-1.7,6.7-1.9,9.7c-0.2,3.4,0.5,6.4,2.5,9.9c0.3,0.5,1.4,2.3,2.5,3.9c1.1,1.6,2.4,3.6,2.9,4.4c2.1,3.2,3.3,5.8,3.8,8.3
			c0.2,1.2,0.3,3.9,0.2,5C108.2,153.3,106.2,159.1,105.3,160.9z"/>
		<path class="st9" d="M65.8,179.2c0.1-1.9,0.2-2.7,0.6-4.4c0.7-2.6,1.7-4.8,4-8.4c0.6-1,1.2-2,1.4-2.3c0.2-0.3,1-1.5,1.7-2.7
			c3.3-5.2,4.6-9,4.6-12.7c0-1.9-0.3-3.5-1-5.3c-0.6-1.6-1.3-2.8-2.8-5.1c-1.8-2.7-2.5-3.9-2.9-4.9c-0.2-0.4-0.3-0.8-0.3-0.8
			c0,0-1,0.7-2.7,2.2c-1.5,1.2-3.5,2.7-4.5,3.4c-4.3,2.6-8.4,3.1-12.6,1.6c-1.5-0.5-3.6-1.6-5.1-2.7c-0.9-0.6-2.5-1.9-3.7-3
			c-1.4-1.2-2-1.6-2-1.3c0,0.4-1.3,2.8-2.1,3.9c-0.1,0.2-0.6,0.9-1.1,1.6c-3.5,5.1-4.5,8.9-3.5,13.6c0.4,1.8,1.5,4.8,2.6,6.7
			c0.7,1.2,3.5,5.8,4.6,7.5c1.6,2.5,3.3,5.9,4,8.1c0.6,2.3,0.9,4,0.8,6.2c0,0.8-0.1,1.9-0.2,2.4l-0.1,0.8c0,0,2,0,3.4,0
			c0.8,0,1.6-0.3,2.2-0.6c0.6-0.3,1.7-3.4,4.3-3.4c2.6,0,3.3,1.9,3.8,2.4c0.5,0.5,1.9,1.3,3.3,1.6c1.5,0.3,3.8,0.2,3.8,0.2
			C65.9,182.3,65.8,180.9,65.8,179.2z"/>
		<path class="st9" d="M80.1,175.7c0.6-3.1,1.8-5.5,5.3-11c2.8-4.5,4.3-7.4,5.1-10.1c1.4-4.7,1-8.9-1.2-13.3
			c-0.8-1.5-0.7-1.5-4.9-7.7c-2.3-3.4-3.3-5.7-3.8-8.5c-0.2-0.9-0.2-1.4-0.2-3c0-3.9,0.8-7.1,3.5-14c2.5-6.3,3.2-9.3,3.5-14.1
			c0.2-3.9-0.5-8.7-1.7-12.5c-1.4-4.1-4.2-9.3-6.6-12.1c-1.5-1.7-2.9-3.3-3.4-3.7c-1.1-0.8-1.7-1-1.5-0.5c0.1,0.3,1,1.9,1.8,3
			c3.3,5,5.2,9.4,6.3,15.2c0.6,3.1,0.7,4.3,0.7,7.3c0,5.9-0.9,9.5-4.2,17.2c-2.5,5.8-3.7,9.7-4,13c-0.1,1.3-0.1,4,0,5
			c0.1,1,0.6,2.8,1,3.9c0.7,1.8,1.5,3.2,3.8,6.8c2.4,3.7,3,4.6,3.8,6.7c1.4,3.8,1.4,7.2,0,11.4c-0.7,2.1-2.5,5.5-4.7,8.8
			c-5,7.7-6.5,10.9-6.4,15.7c0,0,1.9-0.4,3.2,0.2c1.3,0.7,0.7,2.1,2,3.1c1.1,0.9,2.5,0.7,2.5,0.7S79.6,177.8,80.1,175.7z"/>
		<path class="st9" d="M87.3,182.6c-0.7-2.7-0.7-5.8,0.1-8.7c0.7-2.5,2.6-6.4,5-10.1c0.9-1.3,2.8-5,3.5-6.4
			c1.6-3.6,2.3-7.5,1.7-10.6c-0.5-3.1-1.7-5.6-4.8-10.2c-2.5-3.7-3.4-5.2-4.4-7.3c-1.7-3.6-2.3-7-1.8-10.6c0.4-3.1,0.9-5.1,2.4-9.6
			c1.9-5.6,2.6-8.3,3-11.3c0.2-1.7,0.2-7.1,0-8.6c-0.5-3.3-1.5-7.1-2.5-9.6c-1-2.4-2.9-6-4.2-7.8c-0.3-0.4-0.9-1.2-1.2-1.7
			c-1-1.3-1.4-2-1.3-2c0.2-0.2,1.5,0.7,2.6,1.6c1.2,1.1,3.4,3.6,4.5,5.3c6.1,9.4,8,18.7,5.7,28.8c-0.3,1.5-1,3.7-1.7,6.1
			c-1.7,5.3-2.2,7.7-2.2,10.9c0,2.4,0.3,4,1,6c1,2.5,1.6,3.6,4.9,8.3c3.6,5.2,4.8,7.7,5.5,11.6c0.2,1.1,0.3,3.1,0.1,4.1
			c-0.1,1.1-0.5,2.7-0.8,3.8c-0.8,2.6-2,5.3-5,10.5c-1.3,2.4-2,3.6-2.5,4.8c-1.5,3.5-2,6.3-1.6,9.4c0,0-1.8,0-2.9,0.6
			C89,180.5,87.3,182.6,87.3,182.6z"/>
		<path class="st9" d="M0,154c1.4,2.6,2.2,3.7,4.1,5.4c2.2,1.7,3.2,4,3.2,4l-0.2-1.2c0,0-1.6-3.7-2.1-4.6c-0.8-1.3-1.4-3.3-1.8-5.8
			c-0.1-0.5-0.1-1.3-0.1-2.1c0,0-2.2,0.8-2.7,2.1C0,152.7,0,154,0,154z"/>
		<path class="st9" d="M18.4,74.9c0.4-0.7,0.8-1.3,0.9-1.4c0-0.1,0-0.1-0.1-0.1c-0.4,0-3.4,3.3-5.1,5.5c-2.4,3.3-4.4,7.4-5.7,12.2
			c-0.2,0.8-0.6,2.9-0.8,4.1c-0.8,5.1-0.4,8.8,1.8,17.6c1,4.2,1.4,6.2,1.3,8.5c0,1.4-0.1,1.7-0.3,2.6c-0.7,2.6-1.8,4.6-5.2,9.3
			c-1.4,2-3,4.4-3.9,5.8c-0.4,0.6-0.8,1.4-1.1,2.1c0,0,0,0.9,0.5,1.5c0.4,0.6,1.2,0.3,1.8,0.6c0.7,0.3,1.4,1.3,1.4,1.3
			c0.7-2,1.8-4.1,3.4-6.6c4.7-7.1,5.1-7.6,6-9.4c0.7-1.3,1.5-3.6,1.7-4.8c0.6-3.1,0-7.5-1.9-14.1c-0.9-3.1-1.4-5.3-1.7-7.4
			c-0.5-3.6-0.4-6.4,0.2-10.4C12.4,86,14.4,81.3,18.4,74.9z"/>
		<path class="st9" d="M24.1,183.2c0.2-0.6,0.4-1.9,0.6-2.6c0.2-1.4,0.1-4.2-0.2-5.6c-0.6-2.9-1.8-5.6-4.6-10.3
			c-2.3-3.8-3.1-5.3-4-7.2c-1.4-3.1-2.1-6.3-2-8.8c0.2-3.8,1.5-7.1,5-12.1c1.2-1.7,2.6-3.9,3.4-5.3c2.5-4.2,3.4-8,2.9-12.2
			c-0.3-2.8-0.8-4.9-2.6-10.1c-1.3-4-1.8-5.6-2.2-7.1c-1.2-4.9-1.3-10.2-0.3-15.2c0.6-2.8,1.5-5.8,2.5-8.1c0.9-2,2.5-5,3.5-6.3
			c2.7-3.7,2.9-4.1,2.8-4.1c-0.3-0.2-2.1,1.1-3.2,2.2c-2.5,2.5-4.5,5.4-6.6,9.6c-1.9,3.8-3.1,7.7-3.6,12.1c-0.2,1.6-0.3,4.7-0.1,6.3
			c0.3,3.5,1.2,7.2,3,12.8c1.6,5,2,7,1.9,10.4c-0.1,2.3-0.4,3.7-1.3,6c-0.7,1.8-1.4,2.9-3.2,5.6c-3.8,5.7-4.3,6.3-5,7.8
			c-1.6,3.1-2.2,5.7-2.1,8.7c0.1,1.7,0.2,2.9,0.7,4.5c0.7,2.3,1.3,4,2.4,5.9c1.1,2.1,2.6,4.9,2.9,5.5c1.8,3,3.1,6.1,3.6,8.3
			c0.4,1.8,0.5,3.8,0.3,5.5c0,0,1.8,0,3,0.8c0.6,0.4,0.9,1.6,1.4,2.2C23.4,183.1,24.1,183.3,24.1,183.2z"/>
		<path class="st9" d="M39.2,179.5c0-0.2-0.2-2.5-0.2-2.7c-0.4-2.4-1.3-4.7-3-7.9c-0.7-1.2-1.3-2.3-3.6-5.9
			c-2.4-3.8-3.4-5.7-4.2-8.1c-1.3-3.7-1.4-6.9-0.4-10.3c0.3-1.1,1.2-3.2,1.8-4.2c0.3-0.5,1.3-2.2,2.4-3.8c2.1-3.2,2.5-3.8,3.2-5.4
			c0.9-1.9,1.4-3.8,1.7-5.9c0.1-1.1,0.1-4-0.1-5.2c-0.4-2.9-1.3-6-2.7-9.5c-3.1-7.6-3.6-8.9-4.1-10.8c-1.9-6.6-1.7-13.9,0.8-21.4
			c1.2-3.8,2.8-6.9,5.1-10.5c0.8-1.3,1.8-2.9,1.8-3.1c0-0.7-1.7,0.5-3.4,2.5C31.8,70,30,72.7,28.3,76c-2.9,5.8-4.3,11.5-4.1,17.4
			c0.1,4.5,1.1,8.5,3.2,13.8c1.9,4.6,2.4,6.2,3.1,8.7c0.7,2.9,0.8,3.4,0.8,5.9c0,2.7-0.1,3.5-0.8,5.6c-0.7,2.2-1.8,4.1-4.2,7.6
			c-4,5.8-5.1,8.1-5.7,11.5c-0.4,2.7-0.3,5.2,0.6,8.2c0.7,2.3,2.4,5.9,4.6,9.2c3.8,5.9,5.2,8.9,5.8,12.3c0.3,1.9,0.2,4.3-0.2,6.4
			l-0.2,0.5c0,0,2.1-0.5,3.5-2.4C35.4,179.7,38.1,178.7,39.2,179.5z"/>
	</g>
</g>
</svg>
