<svg id="Слой_1" data-name="Слой 1" xmlns="http://www.w3.org/2000/svg" viewBox="0 0 367.35 183.62"><defs><style>.cls-1{fill:#007042;}.cls-2,.cls-3{fill:none;stroke:#005330;stroke-miterlimit:10;}.cls-2{stroke-width:5px;}.cls-3{stroke-width:2px;stroke-dasharray:5 5;}.cls-4{font-size:24.7px;}.cls-4,.cls-5,.cls-6{fill:#005330;}.cls-4,.cls-5{font-family:Archive;}.cls-5{font-size:83.93px;}</style></defs><path class="cls-1" d="M57.75,30.71c-2.54,2.62-2.92,3.47-2.92,6.78,0,3.47.23,3.93,2.15,4.85a4,4,0,0,1,2.31,3c.23,1.92-.23,2.54-3.31,5.16-.77.61-1.15,2.31-1.15,5,0,3.39.23,4.16,1.69,4.78,2.31,1.08,3.24,2.85,2.62,5.23a3.26,3.26,0,0,1-2.39,2.55c-1.77.46-1.92.77-1.92,5.31s.15,4.85,1.92,5.31a3.26,3.26,0,0,1,2.39,2.54c.62,2.39-.31,4.16-2.62,5.24-1.46.62-1.69,1.39-1.69,5.24,0,4,.15,4.54,1.92,5.31a4.54,4.54,0,0,1,2.39,2.7c.54,2.08-1.46,5.62-3.16,5.62-.85,0-1.15,1-1.15,4.24,0,3.61.23,4.38,1.92,5.46,3.47,2.24,3.24,7.24-.38,8.4-1.31.38-1.54,1.15-1.54,5.08,0,3.31.3,4.54,1,4.54,1.54,0,3.62,2.55,3.62,4.47,0,.92-1,2.39-2.31,3.39-2.08,1.46-2.31,2.08-2.31,5.77,0,3.39.3,4.16,1.77,4.93,3.69,2,3.93,5.55.54,7.47-2.16,1.24-2.31,1.62-2.31,6.09,0,3.69.23,4.85,1.07,4.85,1.78,0,3.55,2.23,3.55,4.31,0,1.31-.7,2.31-2.31,3.24-2.16,1.23-2.31,1.61-2.31,5.7s.15,4.46,2.15,5.39c1.62.84,2.08,1.54,2.08,3.62,0,1.77-.46,2.85-1.54,3.46-2.31,1.31-2.69,2.08-2.69,5.93,0,3,.3,3.7,2.31,5.16,1.31,1,2.31,2.23,2.31,2.85,0,1.62,8.85,1.62,9.47.08a8.19,8.19,0,0,1,2.46-2.47,4,4,0,0,1,6.17,1.93c.38,1.38,1.15,1.62,4.62,1.62s4.46-.31,6.39-2.31c1.31-1.31,3.08-2.31,3.93-2.31s2.31,1,3.31,2.31c1.46,2.07,2.15,2.31,5.62,2.31s4.08-.24,4.85-1.93a5.15,5.15,0,0,1,2.85-2.39c1.62-.38,2.54,0,4.54,1.93s3.08,2.39,6.09,2.39,3.77-.31,4.85-1.93c1.69-2.62,4.54-3.23,6.47-1.54a4.44,4.44,0,0,1,1.54,2.46c0,.7,1.23,1,4.47,1,4.08,0,4.62-.24,6.16-2.31a5,5,0,0,1,3.54-2.31,5.64,5.64,0,0,1,3.77,2.31c1.7,2,2.54,2.31,5.7,2.31,3.31,0,4-.31,5.47-2.31a9.17,9.17,0,0,0,1.69-5.4c0-2.54.23-3.08,1.54-3.08s1.54.54,1.54,3.32c0,2.38.39,3.46,1.54,4.23a3.15,3.15,0,0,1,1.54,2.08c0,.92,1,1.16,4.32,1.16,3.77,0,4.54-.31,6.47-2.31,1.15-1.31,2.77-2.31,3.46-2.31s2.31,1,3.47,2.31c3.08,3.31,8,3.31,11.39,0,3.09-2.93,4.16-2.93,6.55,0,1.77,2,2.47,2.31,6.08,2.31,3.78,0,4.39-.24,5.86-2.31,1-1.31,2.39-2.31,3.23-2.31s2.24,1,3.24,2.31c1.54,2.07,2.08,2.31,6,2.31s4.47-.24,5.39-1.93c1.7-3.16,4.39-3.31,7.09-.46,1.92,2,2.77,2.39,6,2.39,3,0,4-.31,5.16-1.85,2.31-3.08,4.54-3.24,7.08-.54,1.85,2,2.85,2.39,5.62,2.39s3.85-.47,5.63-2.31c2.77-2.93,4.62-2.93,7.16,0,1.77,2,2.54,2.31,6.08,2.31,3.16,0,4.08-.31,4.47-1.39.38-1.39,3.39-3.23,5-3.23.47,0,1.7,1,2.85,2.31,1.7,1.92,2.62,2.31,5.55,2.31s3.93-.39,5.62-2.31c2.54-2.93,4.7-2.93,6.93,0,1.46,2,2.16,2.31,5.47,2.31s4-.31,5.7-2.31c2.46-3,5.08-3,7.31,0,1.54,2.07,2.08,2.31,6.16,2.31,3.24,0,4.47-.31,4.47-1a4.44,4.44,0,0,1,1.54-2.46c1.93-1.69,4.78-1.08,6.47,1.54,1.08,1.62,1.85,1.93,4.85,1.93s4.08-.39,6.09-2.39,2.92-2.31,4.54-1.93a5.15,5.15,0,0,1,2.85,2.39c.77,1.69,1.39,1.93,4.85,1.93s4.16-.24,5.62-2.31c2.24-2.93,4.32-2.93,7.24,0,1.93,2,2.85,2.31,6.32,2.31s4.16-.24,4.93-1.85c1.15-2.54,3.62-3.24,6-1.62a6.87,6.87,0,0,1,2.39,2.39c.62,1.54,9.47,1.54,9.47-.08,0-.62,1.08-1.85,2.31-2.85,2-1.46,2.31-2.16,2.31-5.16,0-3.85-.38-4.62-2.69-5.93-1.08-.61-1.54-1.69-1.54-3.46,0-2.08.46-2.78,2.15-3.62,1.93-.93,2.08-1.39,2.08-5.39s-.15-4.47-2.31-5.7c-1.61-.93-2.31-1.93-2.31-3.24,0-2.08,1.77-4.31,3.55-4.31.84,0,1.07-1.16,1.07-4.85,0-4.47-.15-4.85-2.31-6.09-3.39-1.92-3.15-5.46.62-7.47,1.39-.77,1.69-1.54,1.69-4.93,0-3.69-.23-4.31-2.31-5.77-1.38-1.08-2.31-2.47-2.31-3.54,0-1.85,2.16-4.32,3.7-4.32.62,0,.92-1.61.92-4.54,0-3.93-.23-4.7-1.54-5.08-3.62-1.16-3.85-6.16-.38-8.4,1.69-1.08,1.92-1.85,1.92-5.46,0-3.24-.3-4.24-1.15-4.24-1.7,0-3.7-3.54-3.16-5.62a4.54,4.54,0,0,1,2.39-2.7c1.77-.77,1.92-1.31,1.92-5.31,0-3.85-.23-4.62-1.69-5.24-2.31-1.08-3.24-2.85-2.62-5.24a3.26,3.26,0,0,1,2.39-2.54c1.77-.46,1.92-.77,1.92-5.31s-.15-4.85-1.92-5.31a3.26,3.26,0,0,1-2.39-2.55c-.62-2.38.31-4.15,2.62-5.23,1.46-.62,1.69-1.39,1.69-4.78,0-3.85-.23-4.23-3.46-7-1.93-1.61-1.16-4.92,1.38-6.16,1.85-.92,2.08-1.38,2.08-4.85s-.3-4.08-3.08-6.85-3.54-3.08-6.62-3.08-3.93.38-5.7,2.31c-2.69,2.92-4,2.92-6.39,0-1.77-2.08-2.47-2.31-6.16-2.31s-4.24.23-5,1.85c-1.54,3.38-7.08,3.23-8.24-.31-.38-1.31-1.15-1.54-4.93-1.54s-4.54.23-5.31,1.85c-1.16,2.54-3.62,3.23-6,1.61a6.89,6.89,0,0,1-2.38-2.38c-.24-.77-1.62-1.08-4.47-1.08-3.7,0-4.31.23-5.78,2.31-2.08,2.92-4.16,2.92-6.93,0-1.85-2-2.69-2.31-6-2.31s-4,.31-5.08,1.85c-2.23,3.46-6.62,3.23-7.78-.31-.38-1.31-1.15-1.54-5-1.54-4,0-4.78.23-5.86,1.92-2.23,3.39-6.46,3.16-7.62-.38-.77-2.39-7.7-2.24-10.32.31-3.16,2.92-6.62,3-7.93.07-.77-1.69-1.31-1.92-5.16-1.92-4,0-4.39.15-5.62,2.31-1.7,3-3.93,3-6.93,0-1.93-1.93-2.85-2.31-6.09-2.31s-4.16.31-5.85,2.31c-2.39,2.92-3.7,2.92-6.24,0-1.77-2-2.54-2.31-5.93-2.31s-4.16.31-5.93,2.31c-1.08,1.23-2.54,2.31-3.16,2.31s-2.08-1.08-3.08-2.31c-1.77-2-2.46-2.31-6.08-2.31-3.77,0-4.39.23-5.85,2.31-1,1.23-2.39,2.31-3.24,2.31s-2.23-1.08-3.23-2.31c-1.47-2.08-2.08-2.31-5.86-2.31-3.61,0-4.31.31-6.08,2.31-2.46,2.92-4.31,2.92-6.55,0-1.46-2.08-2.15-2.31-5.69-2.31-3.32,0-4.24.31-5.47,1.85-2.31,3.08-4.55,3.23-7.09.53-1.85-2-2.77-2.38-5.85-2.38-4.77,0-8.09,3.15-8.09,7.78,0,2.46-.23,3-1.54,3s-1.54-.54-1.54-3.16a9.7,9.7,0,0,0-1.61-5.39c-1.39-2-2-2.23-6.09-2.23-3.85,0-4.62.23-5,1.54-1.16,3.54-5.55,3.77-7.78.31-1.08-1.54-1.85-1.85-5.08-1.85s-4.16.31-6,2.31c-1.16,1.23-2.85,2.31-3.7,2.31s-2.31-1.08-3.23-2.31c-1.47-2.08-2.08-2.31-5.78-2.31-2.85,0-4.23.31-4.47,1.08A6.89,6.89,0,0,1,112.28,31c-2.39,1.62-4.85.93-6-1.61-.77-1.62-1.39-1.85-5.31-1.85s-4.55.23-4.93,1.54c-1.16,3.54-6.7,3.69-8.24.31-.77-1.62-1.39-1.85-5-1.85s-4.39.23-6.16,2.31c-1,1.23-2.46,2.31-3.08,2.31s-2.16-1.08-3.31-2.31c-1.85-2-2.7-2.31-5.93-2.24S60.29,28,57.75,30.71ZM166.49,49.89c0,3.31-.23,3.85-1.54,3.85s-1.54-.54-1.54-3.85S163.64,46,165,46,166.49,46.58,166.49,49.89Zm0,15.4c0,3.31-.23,3.85-1.54,3.85s-1.54-.54-1.54-3.85.23-3.85,1.54-3.85S166.49,62,166.49,65.29Zm0,15.41c0,3.31-.23,3.85-1.54,3.85s-1.54-.54-1.54-3.85.23-3.85,1.54-3.85S166.49,77.38,166.49,80.7Zm0,15.4c0,3.31-.23,3.85-1.54,3.85s-1.54-.54-1.54-3.85.23-3.85,1.54-3.85S166.49,92.79,166.49,96.1Zm0,15.4c0,3.31-.23,3.85-1.54,3.85s-1.54-.54-1.54-3.85.23-3.85,1.54-3.85S166.49,108.19,166.49,111.5Zm0,15.4c0,3.31-.23,3.85-1.54,3.85s-1.54-.54-1.54-3.85.23-3.85,1.54-3.85S166.49,123.59,166.49,126.9Zm0,15.41c0,3.31-.23,3.85-1.54,3.85s-1.54-.54-1.54-3.85.23-3.86,1.54-3.86S166.49,139,166.49,142.31Zm0,15.4c0,3.31-.23,3.85-1.54,3.85s-1.54-.54-1.54-3.85.23-3.85,1.54-3.85S166.49,154.4,166.49,157.71Zm0,15.4c0,3.31-.23,3.85-1.54,3.85s-1.54-.54-1.54-3.85.23-3.85,1.54-3.85S166.49,169.8,166.49,173.11Zm0,15.4c0,3.31-.23,3.85-1.54,3.85s-1.54-.54-1.54-3.85.23-3.85,1.54-3.85S166.49,185.2,166.49,188.51Z" transform="translate(-54.83 -27.4)"/><rect class="cls-2" x="125.28" y="44.01" width="229.3" height="90.15" rx="11.25"/><rect class="cls-3" x="125.28" y="143.48" width="229.3" height="28.05" rx="7.37"/><text class="cls-4" transform="translate(125.28 34.31) scale(1.01 1)"><tspan xml:space="preserve">БОНУСНИЙ  КУПОН</tspan></text><text class="cls-5" transform="translate(140.61 115.94) scale(1.01 1)">150</text><path class="cls-6" d="M365.22,81.07a18.5,18.5,0,0,0-11.68,6.64,22.4,22.4,0,0,0-3.92,8.89c-.19,1.55-.16,1.66,1.05,2.34a20,20,0,0,0,4.64,1.21c4.71.71,4.71.71,4.71-.53,0-1.66,2-5.47,3.58-6.75,3.13-2.6,9.46-3.09,13.57-1.05a9.59,9.59,0,0,1,5.09,10.74l-.45,1.89H345.32v3.73c0,3,.11,3.77.6,4,.34.11,5.2.22,10.78.22s10.14.08,10.07.19-1.7.6-3.58,1.13c-4.68,1.4-7.81,3-10.18,5.35-2,2-2,2-4.37,2a10,10,0,0,0-2.87.3c-.34.23-.38,1.17-.23,3.77l.27,3.47h2.41l0,3.05c.11,11.24,7.16,18.74,19.11,20.36,5.88.76,12.59-.6,16.74-3.39a17.48,17.48,0,0,0,7.65-11.2c.6-3.09.15-3.69-3.43-4.48-1.58-.34-3.24-.72-3.66-.83-.71-.15-.94.11-1.62,2.22-1,2.94-1.66,4-3.77,5.73-2.22,1.89-3.84,2.49-7,2.75-8.06.64-14.09-4.63-13.64-11.95l.11-1.92,18.77,0h18.74v-3.73c0-3.55,0-3.74-.83-4-.49-.12-7.2-.23-15-.23s-14-.11-13.87-.26,2.87-1,6-1.89c6.37-1.81,10.36-3.54,12.44-5.35l1.35-1.17h4.45a25.49,25.49,0,0,0,4.94-.3c.26-.19.49-1.7.56-4.15l.12-3.84h-5.66l.12-3.32A19.12,19.12,0,0,0,389,90.65a17.51,17.51,0,0,0-13-9.39A38.78,38.78,0,0,0,365.22,81.07Z" transform="translate(-54.83 -27.4)"/></svg>