<?xml version="1.0" encoding="utf-8"?>
<!-- Generator: Adobe Illustrator 24.1.2, SVG Export Plug-In . SVG Version: 6.00 Build 0)  -->
<svg version="1.1" id="Слой_1" xmlns="http://www.w3.org/2000/svg" xmlns:xlink="http://www.w3.org/1999/xlink" x="0px" y="0px"
	 viewBox="0 0 367.5 183.7" style="enable-background:new 0 0 367.5 183.7;" xml:space="preserve">
<style type="text/css">
	.st0{fill:#007042;}
	.st1{fill:#005330;}
</style>
<g id="Слой_1-2">
	<path class="st0" d="M3,3.2C0.5,5.8,0.1,6.7,0.1,10c0,3.5,0.2,3.9,2.2,4.8c1.2,0.6,2.1,1.7,2.3,3c0.2,1.9-0.2,2.5-3.3,5.2
		c-0.8,0.6-1.2,2.3-1.2,5c0,3.4,0.2,4.2,1.7,4.8C4.1,33.9,5,35.6,4.4,38c-0.3,1.2-1.2,2.2-2.4,2.6c-1.8,0.4-1.9,0.7-1.9,5.3
		s0.2,4.8,1.9,5.3c1.2,0.3,2.2,1.3,2.4,2.5C5.1,55.9,4,58.2,1.8,59c-1.5,0.6-1.7,1.3-1.7,5.2s0.2,4.5,1.9,5.3C3.1,70,4,71,4.4,72.2
		c0.5,2.1-1.5,5.6-3.2,5.6c-0.8,0-1.2,1-1.2,4.2c0,3.6,0.2,4.4,1.9,5.5c3.5,2.2,3.2,7.2-0.4,8.4c-1.2,0.4-1.4,1.2-1.4,5.1
		c0,3.3,0.3,4.5,1,4.5c1.5,0,3.6,2.6,3.6,4.5c0,0.9-1,2.4-2.3,3.4c-2.1,1.5-2.3,2.1-2.3,5.8c0,3.4,0.3,4.2,1.8,4.9
		c3.7,2,3.9,5.6,0.5,7.5c-2.2,1.2-2.3,1.6-2.3,6.1c0,3.7,0.2,4.9,1.1,4.9c1.8,0,3.5,2.2,3.5,4.3c0,1.3-0.7,2.3-2.3,3.2
		c-2.2,1.2-2.3,1.6-2.3,5.7s0.2,4.5,2.2,5.4c1.6,0.8,2.1,1.5,2.1,3.6c0,1.8-0.5,2.9-1.5,3.5c-2.3,1.3-2.7,2.1-2.7,5.9
		c0,3,0.3,3.7,2.3,5.2c1.3,1,2.3,2.2,2.3,2.9c0,1.6,8.9,1.6,9.5,0.1c0.6-1,1.5-1.9,2.5-2.5c1.8-1.3,4.3-0.9,5.6,0.8
		c0.2,0.4,0.4,0.7,0.6,1.1c0.4,1.4,1.2,1.6,4.6,1.6s4.5-0.3,6.4-2.3c1.3-1.3,3.1-2.3,3.9-2.3s2.3,1,3.3,2.3c1.5,2.1,2.2,2.3,5.6,2.3
		s4.1-0.2,4.8-1.9c0.6-1.1,1.6-2,2.8-2.4c1.6-0.4,2.5,0,4.5,1.9s3.1,2.4,6.1,2.4c3,0,3.8-0.3,4.8-1.9c1.7-2.6,4.5-3.2,6.5-1.5
		c0.8,0.6,1.3,1.5,1.5,2.5c0,0.7,1.2,1,4.5,1c4.1,0,4.6-0.2,6.2-2.3c0.8-1.3,2-2.1,3.5-2.3c1.5,0.2,2.9,1.1,3.8,2.3
		c1.7,2,2.5,2.3,5.7,2.3s4-0.3,5.5-2.3c1.1-1.6,1.7-3.5,1.7-5.4c0-2.5,0.2-3.1,1.5-3.1s1.5,0.5,1.5,3.3c0,2.4,1.2,5.4,2.3,6.1
		c1.5,1,3.2,1.5,5,1.4c3.8,0,4.5-0.3,6.5-2.3c0.9-1.1,2.1-1.9,3.5-2.3c0.7,0,2.3,1,3.5,2.3c3.1,3.3,8,3.3,11.4,0
		c3.1-2.9,4.2-2.9,6.6,0c1.8,2,2.5,2.3,6.1,2.3c3.8,0,4.4-0.2,5.9-2.3c1-1.3,2.4-2.3,3.2-2.3s2.2,1,3.2,2.3c1.5,2.1,2.1,2.3,6,2.3
		s4.5-0.2,5.4-1.9c1.7-3.2,4.4-3.3,7.1-0.5c1.9,2,2.8,2.4,6,2.4c3,0,4-0.3,5.2-1.9c2.3-3.1,4.5-3.2,7.1-0.5c1.9,2,2.9,2.4,5.6,2.4
		s3.9-0.5,5.6-2.3c2.8-2.9,4.6-2.9,7.2,0c1.8,2,2.5,2.3,6.1,2.3c3.2,0,4.1-0.3,4.5-1.4c0.4-1.4,3.4-3.2,5-3.2c0.5,0,1.7,1,2.9,2.3
		c1.7,1.9,2.6,2.3,5.5,2.3s3.9-0.4,5.6-2.3c2.5-2.9,4.7-2.9,6.9,0c1.5,2,2.2,2.3,5.5,2.3s4-0.3,5.7-2.3c2.5-3,5.1-3,7.3,0
		c1.5,2.1,2.1,2.3,6.2,2.3c3.2,0,4.5-0.3,4.5-1c0.2-1,0.8-1.8,1.5-2.5c1.9-1.7,4.8-1.1,6.5,1.5c1.1,1.6,1.9,1.9,4.9,1.9
		s4.1-0.4,6.1-2.4s2.9-2.3,4.5-1.9c1.2,0.4,2.2,1.3,2.8,2.4c0.8,1.7,1.4,1.9,4.9,1.9s4.2-0.2,5.6-2.3c2.2-2.9,4.3-2.9,7.2,0
		c1.9,2,2.8,2.3,6.3,2.3s4.2-0.2,4.9-1.9c1.1-2.5,3.6-3.2,6-1.6c1,0.6,1.8,1.4,2.4,2.4c0.6,1.5,9.5,1.5,9.5-0.1
		c0-0.6,1.1-1.9,2.3-2.9c2-1.5,2.3-2.2,2.3-5.2c0-3.9-0.4-4.6-2.7-5.9c-1.1-0.6-1.5-1.7-1.5-3.5c0-2.1,0.5-2.8,2.1-3.6
		c1.9-0.9,2.1-1.4,2.1-5.4s-0.2-4.5-2.3-5.7c-1.6-0.9-2.3-1.9-2.3-3.2c0-2.1,1.8-4.3,3.5-4.3c0.8,0,1.1-1.2,1.1-4.9
		c0-4.5-0.2-4.9-2.3-6.1c-3.4-1.9-3.2-5.5,0.6-7.5c1.4-0.8,1.7-1.5,1.7-4.9c0-3.7-0.2-4.3-2.3-5.8c-1.4-1.1-2.3-2.5-2.3-3.5
		c0-1.9,2.2-4.3,3.7-4.3c0.6,0,0.9-1.6,0.9-4.5c0-3.9-0.2-4.7-1.5-5.1c-3.6-1.2-3.9-6.2-0.4-8.4c1.7-1.1,1.9-1.8,1.9-5.5
		c0-3.2-0.3-4.2-1.1-4.2c-1.7,0-3.7-3.5-3.2-5.6c0.4-1.2,1.3-2.2,2.4-2.7c1.8-0.8,1.9-1.3,1.9-5.3c0-3.8-0.2-4.6-1.7-5.2
		c-2.3-1.1-3.2-2.8-2.6-5.2c0.2-1.2,1.2-2.2,2.4-2.5c1.8-0.5,1.9-0.8,1.9-5.3s-0.1-4.8-1.9-5.3c-1.2-0.3-2.2-1.3-2.4-2.6
		c-0.7-2.1,0.4-4.5,2.6-5.2c0,0,0,0,0,0c1.5-0.6,1.7-1.4,1.7-4.8c0-3.8-0.2-4.2-3.5-7c-1.9-1.6-1.2-4.9,1.4-6.2
		c1.9-0.9,2.1-1.4,2.1-4.8s-0.4-4.2-3.1-7S360.9,0,357.8,0s-3.9,0.4-5.7,2.3c-2.7,2.9-4,2.9-6.4,0c-1.8-2.1-2.5-2.3-6.2-2.3
		s-4.2,0.2-5,1.9c-1.5,3.4-7.1,3.2-8.2-0.3c-0.4-1.3-1.2-1.5-4.9-1.5s-4.5,0.2-5.3,1.9c-1.2,2.5-3.6,3.2-6,1.6
		c-1-0.6-1.8-1.4-2.4-2.4c-0.2-0.8-1.6-1.1-4.5-1.1c-3.7,0-4.3,0.2-5.8,2.3c-2.1,2.9-4.2,2.9-6.9,0c-1.9-2-2.7-2.3-6-2.3
		s-4,0.3-5.1,1.9c-2.2,3.5-6.6,3.2-7.8-0.3c-0.4-1.3-1.2-1.5-5-1.5c-4,0-4.8,0.2-5.9,1.9c-2.2,3.4-6.5,3.2-7.6-0.4
		c-0.8-2.4-7.7-2.2-10.3,0.3c-3.2,2.9-6.6,3-7.9,0.1c-0.8-1.7-1.3-1.9-5.2-1.9s-4.4,0.1-5.6,2.3c-1.7,3-3.9,3-6.9,0
		c-1.9-1.9-2.9-2.3-6.1-2.3s-4.2,0.3-5.9,2.3c-2.4,2.9-3.7,2.9-6.2,0c-1.8-2-2.5-2.3-5.9-2.3s-4.2,0.3-5.9,2.3
		c-1.1,1.2-2.5,2.3-3.2,2.3s-2.1-1.1-3.1-2.3c-1.8-2-2.5-2.3-6.1-2.3c-3.8,0-4.4,0.2-5.9,2.3c-1,1.2-2.4,2.3-3.2,2.3
		s-2.2-1.1-3.2-2.3c-1.5-2.1-2.1-2.3-5.9-2.3c-3.6,0-4.3,0.3-6.1,2.3c-2.5,2.9-4.3,2.9-6.6,0c-1.5-2.1-2.1-2.3-5.7-2.3
		c-3.3,0-4.2,0.3-5.5,1.9c-2.3,3.1-4.6,3.2-7.1,0.5c-1.9-2-2.8-2.4-5.9-2.4c-4.8,0-8.1,3.1-8.1,7.8c0,2.5-0.2,3-1.5,3
		s-1.5-0.5-1.5-3.2c0-1.9-0.6-3.8-1.6-5.4c-1.4-2-2-2.2-6.1-2.2c-3.9,0-4.6,0.2-5,1.5c-1.2,3.5-5.6,3.8-7.8,0.3
		c-1-1.6-1.7-1.9-5-1.9s-4.2,0.3-6,2.3c-1.2,1.2-2.9,2.3-3.7,2.3s-2.3-1.1-3.2-2.3c-1.5-2.1-2.1-2.3-5.8-2.3c-2.8,0-4.2,0.3-4.5,1.1
		c-0.6,1-1.4,1.8-2.4,2.4c-2.4,1.6-4.8,0.9-6-1.6c-0.8-1.6-1.4-1.9-5.3-1.9s-4.6,0.2-4.9,1.5c-1.2,3.5-6.7,3.7-8.2,0.3
		c-0.8-1.6-1.4-1.9-5-1.9s-4.4,0.2-6.2,2.3c-1,1.2-2.5,2.3-3.1,2.3s-2.2-1.1-3.3-2.3c-1.8-2-2.7-2.3-5.9-2.2S5.6,0.5,3,3.2z
		 M111.8,22.4c0,3.3-0.2,3.8-1.5,3.8s-1.5-0.5-1.5-3.8s0.2-3.9,1.6-3.9S111.8,19.1,111.8,22.4z M111.8,37.8c0,3.3-0.2,3.8-1.5,3.8
		s-1.5-0.5-1.5-3.8s0.2-3.8,1.5-3.8S111.8,34.5,111.8,37.8z M111.8,53.2c0,3.3-0.2,3.8-1.5,3.8s-1.5-0.5-1.5-3.8s0.2-3.8,1.5-3.8
		S111.8,49.9,111.8,53.2z M111.8,68.6c0,3.3-0.2,3.8-1.5,3.8s-1.5-0.5-1.5-3.8s0.2-3.8,1.5-3.8S111.8,65.3,111.8,68.6z M111.8,84
		c0,3.3-0.2,3.8-1.5,3.8s-1.5-0.5-1.5-3.8s0.2-3.8,1.5-3.8S111.8,80.7,111.8,84z M111.8,99.4c0,3.3-0.2,3.8-1.5,3.8
		s-1.5-0.5-1.5-3.8s0.2-3.8,1.5-3.8S111.8,96.1,111.8,99.4z M111.8,114.8c0,3.3-0.2,3.9-1.5,3.9s-1.5-0.5-1.5-3.9s0.2-3.9,1.5-3.9
		S111.8,111.5,111.8,114.8z M111.8,130.2c0,3.3-0.2,3.9-1.5,3.9s-1.5-0.5-1.5-3.9c0-3.4,0.2-3.9,1.5-3.9S111.8,126.9,111.8,130.2z
		 M111.8,145.6c0,3.3-0.2,3.9-1.5,3.9s-1.5-0.5-1.5-3.9s0.2-3.9,1.5-3.9S111.8,142.3,111.8,145.6z M111.8,161c0,3.3-0.2,3.9-1.5,3.9
		s-1.5-0.5-1.5-3.9s0.2-3.9,1.5-3.9S111.8,157.7,111.8,161z"/>
	<path class="st1" d="M343.4,136.7H136.6c-7.6,0-13.8-6.2-13.8-13.8V55.2c0-7.6,6.2-13.8,13.8-13.8c0,0,0,0,0,0h206.8
		c7.6,0,13.8,6.2,13.8,13.8v67.7C357.2,130.5,351,136.7,343.4,136.7z M136.6,46.4c-4.9,0-8.8,4-8.8,8.8c0,0,0,0,0,0v67.7
		c0,4.9,3.9,8.8,8.8,8.8h206.8c4.9,0,8.8-3.9,8.8-8.8V55.2c0-4.9-3.9-8.8-8.8-8.8H136.6z"/>
	<path class="st1" d="M343.1,172.5h-5v-2h5V172.5z M333.1,172.5h-5v-2h5V172.5z M323.1,172.5h-5v-2h5V172.5z M313.1,172.5h-5v-2h5
		V172.5z M303.1,172.5h-5v-2h5V172.5z M293.1,172.5h-5v-2h5V172.5z M283.1,172.5h-5v-2h5V172.5z M273.1,172.5h-5v-2h5V172.5z
		 M263.1,172.5h-5v-2h5V172.5z M253.1,172.5h-5v-2h5V172.5z M243.1,172.5h-5v-2h5V172.5z M233.1,172.5h-5v-2h5V172.5z M223.1,172.5
		h-5v-2h5V172.5z M213.1,172.5h-5v-2h5V172.5z M203.1,172.5h-5v-2h5V172.5z M193.1,172.5h-5v-2h5V172.5z M183.1,172.5h-5v-2h5V172.5
		z M173.1,172.5h-5v-2h5V172.5z M163.1,172.5h-5v-2h5V172.5z M153.1,172.5h-5v-2h5V172.5z M143.1,172.5h-5v-2h5V172.5z M133.1,172.5
		h-0.4c-1.8,0-3.5-0.6-4.9-1.6l1.2-1.6c1.1,0.8,2.4,1.2,3.7,1.2h0.4V172.5z M348.4,171.6l-0.9-1.8c1.3-0.7,2.3-1.7,2.9-3.1l1.8,0.8
		C351.5,169.3,350.1,170.7,348.4,171.6L348.4,171.6z M124.7,166.3c-0.2-0.7-0.3-1.4-0.3-2.2V161h2v3.1c0,0.6,0.1,1.1,0.2,1.7
		L124.7,166.3z M353,162.3h-2v-5h2V162.3z M126.4,156.1h-2v-5h2V156.1z M353,152.3h-2v-1.5c0-1-0.2-2.1-0.7-3l1.8-0.9
		c0.6,1.2,0.9,2.5,0.9,3.9L353,152.3z M127.7,147l-1.6-1.2c1.1-1.5,2.8-2.6,4.6-3.1l0.5,1.9C129.8,145,128.5,145.8,127.7,147
		L127.7,147z M347.2,145c-0.8-0.3-1.6-0.5-2.5-0.5h-2v-2h2c1.1,0,2.3,0.2,3.3,0.7L347.2,145z M337.7,144.4h-5v-2h5V144.4z
		 M327.7,144.4h-5v-2h5V144.4z M317.7,144.4h-5v-2h5V144.4z M307.7,144.4h-5v-2h5V144.4z M297.7,144.4h-5v-2h5V144.4z M287.7,144.4
		h-5v-2h5V144.4z M277.7,144.4h-5v-2h5V144.4z M267.7,144.4h-5v-2h5V144.4z M257.7,144.4h-5v-2h5V144.4z M247.7,144.4h-5v-2h5V144.4
		z M237.7,144.4h-5v-2h5V144.4z M227.7,144.4h-5v-2h5V144.4z M217.7,144.4h-5v-2h5V144.4z M207.7,144.4h-5v-2h5V144.4z M197.7,144.4
		h-5v-2h5V144.4z M187.7,144.4h-5v-2h5V144.4z M177.7,144.4h-5v-2h5V144.4z M167.7,144.4h-5v-2h5V144.4z M157.7,144.4h-5v-2h5V144.4
		z M147.7,144.4h-5v-2h5V144.4z M137.7,144.4h-5v-2h5V144.4z"/>
	<g>
		<path class="st1" d="M138.7,17.9c0.6,0,0.7,0.3,0.7,0.7v1.9c0,0.4-0.1,0.7-0.7,0.7h-7.6v2.7h3.3c4.4,0,6.5,1.5,6.5,5
			s-2.3,5.2-6.6,5.2h-6.4c-0.6,0-0.7-0.3-0.7-0.7V18.6c0-0.6,0.3-0.7,0.7-0.7L138.7,17.9z M131.1,27.2v3.6h3.2
			c1.9,0,2.8-0.5,2.8-1.8s-0.8-1.8-2.7-1.8L131.1,27.2z"/>
		<path class="st1" d="M156.8,29c0,3.9-3.7,5.6-6.7,5.6s-6.7-1.7-6.7-5.6v-5.8c0-3.9,3.7-5.6,6.7-5.6s6.7,1.7,6.7,5.6V29z
			 M152.9,23.5c0-1.6-1.1-2.5-2.8-2.5c-1.4-0.2-2.6,0.8-2.8,2.2c0,0.1,0,0.2,0,0.3v5.1c0.2,1.5,1.5,2.7,3.1,2.5
			c1.3-0.1,2.4-1.2,2.5-2.5V23.5z"/>
		<path class="st1" d="M173.4,18.7v14.8c0,0.6-0.3,0.7-0.7,0.7h-2.5c-0.4,0-0.7-0.2-0.7-0.7v-5.6h-5.6v5.6c0,0.6-0.3,0.7-0.7,0.7
			h-2.5c-0.4,0-0.7-0.2-0.7-0.7V18.7c0-0.6,0.3-0.7,0.7-0.7h2.5c0.5,0,0.7,0.1,0.7,0.7v5.6h5.6v-5.6c0-0.6,0.3-0.7,0.7-0.7h2.5
			C173.1,17.9,173.4,18.1,173.4,18.7z"/>
		<path class="st1" d="M191.1,18.6l-7.3,14.9c-0.3,0.6-0.6,0.7-1.1,0.7H180c-0.4,0-0.5-0.5-0.3-0.8l1.9-3.8l-5.6-11
			c-0.1-0.3,0-0.7,0.4-0.7h3c0.5-0.1,0.9,0.2,1,0.6l1.7,3.5l1.5,3.4l1.5-3.4l1.7-3.5c0.3-0.5,0.4-0.7,1.1-0.7h2.8
			C191.1,17.9,191.2,18.3,191.1,18.6z"/>
		<path class="st1" d="M199.6,34.6c-3,0-6.7-1.7-6.7-5.6v-5.8c0-3.9,3.7-5.6,6.7-5.6s6.2,1.6,6.5,4.7c0,0.6-0.2,0.7-0.8,0.7h-2.4
			c-0.5,0-0.6-0.5-0.8-0.8c-0.6-0.9-1.6-1.3-2.6-1.2c-1.6,0-2.8,0.9-2.8,2.5v5.1c0,1.6,1.1,2.5,2.8,2.5c1.3,0,2.4-0.5,2.6-1.7
			c0.1-0.5,0.1-0.9,0.7-0.9h2.4c0.5,0,0.7,0.3,0.7,0.8C206,32.6,202.6,34.6,199.6,34.6z"/>
		<path class="st1" d="M222.6,18.7v14.8c0,0.6-0.3,0.7-0.7,0.7h-2.5c-0.4,0-0.7-0.2-0.7-0.7v-5.6h-5.5v5.6c0,0.6-0.3,0.7-0.7,0.7
			h-2.5c-0.4,0-0.7-0.2-0.7-0.7V18.7c0-0.6,0.3-0.7,0.7-0.7h2.5c0.5,0,0.7,0.1,0.7,0.7v5.6h5.6v-5.6c0-0.6,0.3-0.7,0.7-0.7h2.5
			C222.3,17.9,222.6,18.1,222.6,18.7z"/>
		<path class="st1" d="M229.4,17.9c0.4,0,0.7,0.1,0.7,0.7v8.6l5.3-8.4c0.3-0.5,0.5-0.8,1.1-0.8h2.3c0.6,0,0.7,0.3,0.7,0.7v14.8
			c0,0.6-0.3,0.7-0.7,0.7h-2.5c-0.4,0-0.7-0.2-0.7-0.7v-8.6l-5.3,8.5c-0.3,0.5-0.5,0.8-1.1,0.8H227c-0.6,0-0.7-0.3-0.7-0.7V18.7
			c0-0.6,0.3-0.7,0.7-0.7L229.4,17.9z"/>
		<path class="st1" d="M244,17.9h2.4c0.4,0,0.7,0.1,0.7,0.7v8.6l5.3-8.4c0.3-0.5,0.5-0.8,1.1-0.8h2.4c0.6,0,0.7,0.3,0.7,0.7v14.8
			c0,0.6-0.3,0.7-0.7,0.7h-2.5c-0.4,0-0.7-0.2-0.7-0.7v-8.6l-5.3,8.5c-0.3,0.5-0.5,0.8-1.1,0.8H244c-0.6,0-0.7-0.3-0.7-0.7V18.7
			C243.3,18.1,243.6,17.9,244,17.9z M254.1,12.7h-1.3c-0.3,0-0.3,0.2-0.4,0.4c-0.8,1.2-2.4,1.6-3.6,0.8c-0.3-0.2-0.6-0.5-0.8-0.8
			c-0.1-0.2-0.1-0.4-0.4-0.4h-1.2c-0.3,0-0.3,0.4-0.2,0.5c0.3,2.1,2.1,3,4.1,3s3.8-1,4.1-3C254.4,13.1,254.4,12.7,254.1,12.7z"/>
		<path class="st1" d="M287.7,18.6l-5.6,6l5.4,8.8c0.2,0.3,0.1,0.8-0.4,0.8h-3c-0.5,0-1-0.3-1.3-0.8c0,0-2.2-3.7-3.6-5.9l-1.5,1.6
			v4.4c0,0.6-0.3,0.7-0.7,0.7h-2.5c-0.5,0-0.7-0.2-0.7-0.7V18.7c0-0.6,0.3-0.7,0.7-0.7h2.5c0.4,0,0.7,0.1,0.7,0.7v5.5l5.2-5.6
			c0.3-0.4,0.8-0.7,1.3-0.6h3.4C287.9,17.9,287.9,18.4,287.7,18.6z"/>
		<path class="st1" d="M304.1,18.6l-7.3,14.9c-0.3,0.6-0.5,0.7-1.1,0.7H293c-0.4,0-0.5-0.5-0.3-0.8l1.9-3.8l-5.6-11
			c-0.1-0.3,0-0.7,0.4-0.7h3c0.5-0.1,0.9,0.2,1,0.6l1.7,3.5l1.5,3.4l1.5-3.4l1.7-3.5c0.3-0.5,0.4-0.7,1-0.7h2.8
			C304.1,17.9,304.2,18.3,304.1,18.6z"/>
		<path class="st1" d="M319.8,18.7v14.8c0,0.6-0.3,0.7-0.7,0.7h-2.5c-0.5,0-0.7-0.2-0.7-0.7V21.4h-5.6v12.1c0,0.6-0.3,0.7-0.7,0.7
			h-2.5c-0.5,0-0.7-0.2-0.7-0.7V18.7c0-0.6,0.3-0.7,0.7-0.7h12C319.5,17.9,319.8,18.1,319.8,18.7z"/>
		<path class="st1" d="M336.4,29c0,3.9-3.7,5.6-6.7,5.6S323,32.9,323,29v-5.8c0-3.9,3.7-5.6,6.7-5.6s6.7,1.7,6.7,5.6V29z
			 M332.5,23.5c0-1.6-1.1-2.5-2.8-2.5c-1.4-0.2-2.6,0.8-2.8,2.2c0,0.1,0,0.2,0,0.3v5.1c0.2,1.5,1.6,2.6,3.1,2.4
			c1.3-0.2,2.3-1.2,2.4-2.4V23.5z"/>
		<path class="st1" d="M353,18.7v14.8c0,0.6-0.3,0.7-0.7,0.7h-2.5c-0.5,0-0.7-0.2-0.7-0.7v-5.6h-5.6v5.6c0,0.6-0.3,0.7-0.7,0.7h-2.5
			c-0.5,0-0.7-0.2-0.7-0.7V18.7c0-0.6,0.3-0.7,0.7-0.7h2.5c0.5,0,0.7,0.1,0.7,0.7v5.6h5.6v-5.6c0-0.6,0.3-0.7,0.7-0.7h2.5
			C352.7,17.9,353,18.1,353,18.7z"/>
	</g>
	<g>
		<path class="st1" d="M177.5,106.5v6.9c0,1.5-0.5,2.4-2.5,2.4h-26.3c-1.9,0-2.5-0.9-2.5-2.4v-6.9c0-1.5,0.5-2.4,2.5-2.4h7.2V81.6
			h-7.2c-1.9,0-2.5-0.8-2.5-2.4v-6.8c0-1.6,0.5-2.4,2.5-2.4h1.9c1.6,0,5.3-0.8,5.3-7c0.1-1.8,1-2.2,2.5-2.2h8.2
			c1.4,0,2.4,0.4,2.5,2.2v41.2h5.9C177,104.1,177.5,105,177.5,106.5z"/>
		<path class="st1" d="M225.8,98.5c0,12.1-10.6,18.5-20.9,18.5c-10.8,0-20.1-7-20.1-16c0-2.1,0.4-2.4,2.3-2.4h7.6
			c1.4,0,1.8,0.2,2,1.6c1,3.4,4.4,5.1,8.1,5.1c5.5,0,8.6-3.2,8.6-7.7c0-4-3.6-7.6-8.4-7.6c-4.2,0-6.1,1.3-8.5,3.1
			c-0.6,0.3-1.2,0.4-1.9,0.3h-7c-1.8,0-2.3-0.3-2.3-2.5l2.1-27.9c0.1-1.5,0.5-2.4,2.4-2.4h30.2c2,0,2.5,0.9,2.5,2.4V70
			c0,1.5-0.5,2.4-2.5,2.4h-21l-0.8,9.8c2.7-1.4,5.7-2.1,8.7-2.1C217.8,80.2,225.8,87.6,225.8,98.5z"/>
		<path class="st1" d="M276.5,78.4V98c0,13.3-11.8,19-21.2,19s-21.1-5.8-21.1-19V78.4c0-13.3,11.8-19,21.1-19S276.5,65.1,276.5,78.4
			z M264.1,80.3c0-5.4-3.6-9.2-8.8-9.2s-8.7,3.8-8.7,9.2v15.9c0,5.4,3.6,9.2,8.7,9.2c5.2,0,8.8-3.8,8.8-9.2V80.3z"/>
	</g>
	<path class="st1" d="M310.5,53.6c-4.6,0.7-8.8,3-11.7,6.6c-1.9,2.6-3.3,5.7-3.9,8.9c-0.2,1.6-0.2,1.7,1,2.3c1.5,0.6,3,1,4.6,1.2
		c4.7,0.7,4.7,0.7,4.7-0.5c0-1.7,2-5.5,3.6-6.8c3.1-2.6,9.5-3.1,13.6-1.1c4,1.9,6.1,6.4,5.1,10.7l-0.4,2h-36.5v3.7
		c0,3,0.1,3.8,0.6,4c0.3,0.1,5.2,0.2,10.8,0.2s10.1,0.1,10.1,0.2c-1.2,0.5-2.4,0.8-3.6,1.1c-4.7,1.4-7.8,3-10.2,5.3c-2,2-2,2-4.4,2
		c-1,0-1.9,0.1-2.9,0.3c-0.3,0.2-0.4,1.2-0.2,3.8l0.3,3.5h2.4v3.1c0.1,11.2,7.2,18.7,19.1,20.4c5.9,0.8,12.6-0.6,16.7-3.4
		c4-2.6,6.7-6.6,7.7-11.2c0.6-3.1,0.1-3.7-3.4-4.5c-1.6-0.3-3.2-0.7-3.7-0.8c-0.7-0.1-0.9,0.1-1.6,2.2c-1,2.9-1.7,4-3.8,5.7
		c-2.2,1.9-3.8,2.5-7,2.8c-8.1,0.6-14.1-4.6-13.6-11.9l0.1-1.9h37.5v-3.7c0-3.6,0-3.7-0.8-4c-0.5-0.1-7.2-0.2-15-0.2
		s-14-0.1-13.9-0.3c2-0.8,4-1.4,6-1.9c6.4-1.8,10.4-3.5,12.4-5.3l1.3-1.2h4.5c1.6,0.1,3.3,0,4.9-0.3c0.3-0.2,0.5-1.7,0.6-4.2
		l0.1-3.8h-5.7l0.1-3.3c0.3-3.5-0.3-7-1.8-10.1c-2.6-5-7.4-8.5-13-9.4C317.7,53.2,314.1,53.1,310.5,53.6z"/>
</g>
</svg>
