<svg id="Слой_1" data-name="Слой 1" xmlns="http://www.w3.org/2000/svg" viewBox="0 0 367.5 183.72"><defs><style>.cls-1{fill:#007042;}.cls-2{fill:#005330;}.cls-3{isolation:isolate;}.cls-4{fill:#fff;}</style></defs><g id="Слой_1-2" data-name="Слой 1"><path class="cls-1" d="M2.9,3.3C.4,5.9,0,6.8,0,10.1c0,3.5.2,3.9,2.2,4.8a4,4,0,0,1,2.3,3c.2,1.9-.2,2.5-3.3,5.2-.8.6-1.2,2.3-1.2,5,0,3.4.2,4.2,1.7,4.8C4,34,4.9,35.7,4.3,38.1a3.51,3.51,0,0,1-2.4,2.6C.1,41.1,0,41.4,0,46s.2,4.8,1.9,5.3a3.23,3.23,0,0,1,2.4,2.5,4.25,4.25,0,0,1-2.6,5.3C.2,59.7,0,60.4,0,64.3s.2,4.5,1.9,5.3a4.59,4.59,0,0,1,2.4,2.7c.5,2.1-1.5,5.6-3.2,5.6-.8,0-1.2,1-1.2,4.2,0,3.6.2,4.4,1.9,5.5C5.3,89.8,5,94.8,1.4,96,.2,96.4,0,97.2,0,101.1c0,3.3.3,4.5,1,4.5,1.5,0,3.6,2.6,3.6,4.5,0,.9-1,2.4-2.3,3.4C.2,115,0,115.6,0,119.3c0,3.4.3,4.2,1.8,4.9,3.7,2,3.9,5.6.5,7.5C.1,132.9,0,133.3,0,137.8c0,3.7.2,4.9,1.1,4.9,1.8,0,3.5,2.2,3.5,4.3,0,1.3-.7,2.3-2.3,3.2C.1,151.4,0,151.8,0,155.9s.2,4.5,2.2,5.4c1.6.8,2.1,1.5,2.1,3.6,0,1.8-.5,2.9-1.5,3.5C.5,169.7.1,170.5.1,174.3c0,3,.3,3.7,2.3,5.2,1.3,1,2.3,2.2,2.3,2.9,0,1.6,8.9,1.6,9.5.1a8.51,8.51,0,0,1,2.5-2.5,4.08,4.08,0,0,1,5.6.8,10.91,10.91,0,0,1,.6,1.1c.4,1.4,1.2,1.6,4.6,1.6s4.5-.3,6.4-2.3c1.3-1.3,3.1-2.3,3.9-2.3s2.3,1,3.3,2.3c1.5,2.1,2.2,2.3,5.6,2.3s4.1-.2,4.8-1.9a5.09,5.09,0,0,1,2.8-2.4c1.6-.4,2.5,0,4.5,1.9s3.1,2.4,6.1,2.4,3.8-.3,4.8-1.9c1.7-2.6,4.5-3.2,6.5-1.5a4.07,4.07,0,0,1,1.5,2.5c0,.7,1.2,1,4.5,1,4.1,0,4.6-.2,6.2-2.3a4.91,4.91,0,0,1,3.5-2.3,5.86,5.86,0,0,1,3.8,2.3c1.7,2,2.5,2.3,5.7,2.3s4-.3,5.5-2.3a9.59,9.59,0,0,0,1.7-5.4c0-2.5.2-3.1,1.5-3.1s1.5.5,1.5,3.3c0,2.4,1.2,5.4,2.3,6.1a7.79,7.79,0,0,0,5,1.4c3.8,0,4.5-.3,6.5-2.3a6.68,6.68,0,0,1,3.5-2.3c.7,0,2.3,1,3.5,2.3,3.1,3.3,8,3.3,11.4,0,3.1-2.9,4.2-2.9,6.6,0,1.8,2,2.5,2.3,6.1,2.3,3.8,0,4.4-.2,5.9-2.3,1-1.3,2.4-2.3,3.2-2.3s2.2,1,3.2,2.3c1.5,2.1,2.1,2.3,6,2.3s4.5-.2,5.4-1.9c1.7-3.2,4.4-3.3,7.1-.5,1.9,2,2.8,2.4,6,2.4,3,0,4-.3,5.2-1.9,2.3-3.1,4.5-3.2,7.1-.5,1.9,2,2.9,2.4,5.6,2.4s3.9-.5,5.6-2.3c2.8-2.9,4.6-2.9,7.2,0,1.8,2,2.5,2.3,6.1,2.3,3.2,0,4.1-.3,4.5-1.4.4-1.4,3.4-3.2,5-3.2.5,0,1.7,1,2.9,2.3,1.7,1.9,2.6,2.3,5.5,2.3s3.9-.4,5.6-2.3c2.5-2.9,4.7-2.9,6.9,0,1.5,2,2.2,2.3,5.5,2.3s4-.3,5.7-2.3c2.5-3,5.1-3,7.3,0,1.5,2.1,2.1,2.3,6.2,2.3,3.2,0,4.5-.3,4.5-1a5,5,0,0,1,1.5-2.5c1.9-1.7,4.8-1.1,6.5,1.5,1.1,1.6,1.9,1.9,4.9,1.9s4.1-.4,6.1-2.4,2.9-2.3,4.5-1.9a5.09,5.09,0,0,1,2.8,2.4c.8,1.7,1.4,1.9,4.9,1.9s4.2-.2,5.6-2.3c2.2-2.9,4.3-2.9,7.2,0,1.9,2,2.8,2.3,6.3,2.3s4.2-.2,4.9-1.9c1.1-2.5,3.6-3.2,6-1.6a6.89,6.89,0,0,1,2.4,2.4c.6,1.5,9.5,1.5,9.5-.1,0-.6,1.1-1.9,2.3-2.9,2-1.5,2.3-2.2,2.3-5.2,0-3.9-.4-4.6-2.7-5.9-1.1-.6-1.5-1.7-1.5-3.5,0-2.1.5-2.8,2.1-3.6,1.9-.9,2.1-1.4,2.1-5.4s-.2-4.5-2.3-5.7c-1.6-.9-2.3-1.9-2.3-3.2,0-2.1,1.8-4.3,3.5-4.3.8,0,1.1-1.2,1.1-4.9,0-4.5-.2-4.9-2.3-6.1-3.4-1.9-3.2-5.5.6-7.5,1.4-.8,1.7-1.5,1.7-4.9,0-3.7-.2-4.3-2.3-5.8-1.4-1.1-2.3-2.5-2.3-3.5,0-1.9,2.2-4.3,3.7-4.3.6,0,.9-1.6.9-4.5,0-3.9-.2-4.7-1.5-5.1-3.6-1.2-3.9-6.2-.4-8.4,1.7-1.1,1.9-1.8,1.9-5.5,0-3.2-.3-4.2-1.1-4.2-1.7,0-3.7-3.5-3.2-5.6a4.59,4.59,0,0,1,2.4-2.7c1.8-.8,1.9-1.3,1.9-5.3,0-3.8-.2-4.6-1.7-5.2-2.3-1.1-3.2-2.8-2.6-5.2a3.23,3.23,0,0,1,2.4-2.5c1.8-.5,1.9-.8,1.9-5.3s-.1-4.8-1.9-5.3a3.22,3.22,0,0,1-2.4-2.6,4.1,4.1,0,0,1,2.6-5.2c1.5-.6,1.7-1.4,1.7-4.8,0-3.8-.2-4.2-3.5-7-1.9-1.6-1.2-4.9,1.4-6.2,1.9-.9,2.1-1.4,2.1-4.8s-.4-4.2-3.1-7S360.8.1,357.7.1s-3.9.4-5.7,2.3c-2.7,2.9-4,2.9-6.4,0C343.8.3,343.1.1,339.4.1s-4.2.2-5,1.9c-1.5,3.4-7.1,3.2-8.2-.3C325.8.4,325,.2,321.3.2s-4.5.2-5.3,1.9c-1.2,2.5-3.6,3.2-6,1.6a6.89,6.89,0,0,1-2.4-2.4C307.4.5,306,.2,303.1.2c-3.7,0-4.3.2-5.8,2.3-2.1,2.9-4.2,2.9-6.9,0-1.9-2-2.7-2.3-6-2.3s-4,.3-5.1,1.9c-2.2,3.5-6.6,3.2-7.8-.3-.4-1.3-1.2-1.5-5-1.5-4,0-4.8.2-5.9,1.9-2.2,3.4-6.5,3.2-7.6-.4-.8-2.4-7.7-2.2-10.3.3-3.2,2.9-6.6,3-7.9.1C234,.5,233.5.3,229.6.3s-4.4.1-5.6,2.3c-1.7,3-3.9,3-6.9,0C215.2.7,214.2.3,211,.3s-4.2.3-5.9,2.3c-2.4,2.9-3.7,2.9-6.2,0C197.1.6,196.4.3,193,.3s-4.2.3-5.9,2.3c-1.1,1.2-2.5,2.3-3.2,2.3s-2.1-1.1-3.1-2.3C179,.6,178.3.3,174.7.3c-3.8,0-4.4.2-5.9,2.3-1,1.2-2.4,2.3-3.2,2.3s-2.2-1.1-3.2-2.3C160.9.5,160.3.3,156.5.3c-3.6,0-4.3.3-6.1,2.3-2.5,2.9-4.3,2.9-6.6,0C142.3.5,141.7.3,138.1.3c-3.3,0-4.2.3-5.5,1.9-2.3,3.1-4.6,3.2-7.1.5-1.9-2-2.8-2.4-5.9-2.4-4.8,0-8.1,3.1-8.1,7.8,0,2.5-.2,3-1.5,3s-1.5-.5-1.5-3.2a10.32,10.32,0,0,0-1.6-5.4c-1.4-2-2-2.2-6.1-2.2-3.9,0-4.6.2-5,1.5-1.2,3.5-5.6,3.8-7.8.3C87,.5,86.3.2,83,.2s-4.2.3-6,2.3c-1.2,1.2-2.9,2.3-3.7,2.3S71,3.7,70.1,2.5C68.6.4,68,.2,64.3.2c-2.8,0-4.2.3-4.5,1.1a6.89,6.89,0,0,1-2.4,2.4c-2.4,1.6-4.8.9-6-1.6C50.6.5,50,.2,46.1.2s-4.6.2-4.9,1.5C40,5.2,34.5,5.4,33,2,32.2.4,31.6.1,28,.1s-4.4.2-6.2,2.3c-1,1.2-2.5,2.3-3.1,2.3s-2.2-1.1-3.3-2.3C13.6.4,12.7.1,9.5.2S5.5.6,2.9,3.3ZM111.7,22.5c0,3.3-.2,3.8-1.5,3.8s-1.5-.5-1.5-3.8.2-3.9,1.6-3.9S111.7,19.2,111.7,22.5Zm0,15.4c0,3.3-.2,3.8-1.5,3.8s-1.5-.5-1.5-3.8.2-3.8,1.5-3.8S111.7,34.6,111.7,37.9Zm0,15.4c0,3.3-.2,3.8-1.5,3.8s-1.5-.5-1.5-3.8.2-3.8,1.5-3.8S111.7,50,111.7,53.3Zm0,15.4c0,3.3-.2,3.8-1.5,3.8s-1.5-.5-1.5-3.8.2-3.8,1.5-3.8S111.7,65.4,111.7,68.7Zm0,15.4c0,3.3-.2,3.8-1.5,3.8s-1.5-.5-1.5-3.8.2-3.8,1.5-3.8S111.7,80.8,111.7,84.1Zm0,15.4c0,3.3-.2,3.8-1.5,3.8s-1.5-.5-1.5-3.8.2-3.8,1.5-3.8S111.7,96.2,111.7,99.5Zm0,15.4c0,3.3-.2,3.9-1.5,3.9s-1.5-.5-1.5-3.9.2-3.9,1.5-3.9S111.7,111.6,111.7,114.9Zm0,15.4c0,3.3-.2,3.9-1.5,3.9s-1.5-.5-1.5-3.9.2-3.9,1.5-3.9,1.5.6,1.5,3.9Zm0,15.4c0,3.3-.2,3.9-1.5,3.9s-1.5-.5-1.5-3.9.2-3.9,1.5-3.9,1.5.6,1.5,3.9Zm0,15.4c0,3.3-.2,3.9-1.5,3.9s-1.5-.5-1.5-3.9.2-3.9,1.5-3.9,1.5.6,1.5,3.9Z" transform="translate(0.1 -0.1)"/><path class="cls-2" d="M343.3,136.8H136.5A13.81,13.81,0,0,1,122.7,123V55.3a13.79,13.79,0,0,1,13.8-13.8H343.3a13.81,13.81,0,0,1,13.8,13.8V123A13.81,13.81,0,0,1,343.3,136.8ZM136.5,46.5a8.82,8.82,0,0,0-8.8,8.84V123a8.81,8.81,0,0,0,8.8,8.8H343.3a8.81,8.81,0,0,0,8.8-8.8V55.3a8.81,8.81,0,0,0-8.8-8.8Z" transform="translate(0.1 -0.1)"/><path class="cls-2" d="M343,172.6h-5v-2h5Zm-10,0h-5v-2h5Zm-10,0h-5v-2h5Zm-10,0h-5v-2h5Zm-10,0h-5v-2h5Zm-10,0h-5v-2h5Zm-10,0h-5v-2h5Zm-10,0h-5v-2h5Zm-10,0h-5v-2h5Zm-10,0h-5v-2h5Zm-10,0h-5v-2h5Zm-10,0h-5v-2h5Zm-10,0h-5v-2h5Zm-10,0h-5v-2h5Zm-10,0h-5v-2h5Zm-10,0h-5v-2h5Zm-10,0h-5v-2h5Zm-10,0h-5v-2h5Zm-10,0h-5v-2h5Zm-10,0h-5v-2h5Zm-10,0h-5v-2h5Zm-10,0h-.39a8.21,8.21,0,0,1-4.9-1.62l1.2-1.61a6.12,6.12,0,0,0,3.7,1.23H133Zm215.33-.89-.91-1.79a6.31,6.31,0,0,0,2.92-3.07l1.83.82A8.51,8.51,0,0,1,348.32,171.71Zm-223.74-5.34a8.39,8.39,0,0,1-.28-2.17v-3.06h2v3.06a6.63,6.63,0,0,0,.21,1.66Zm228.32-4h-2v-5h2Zm-226.6-6.21h-2v-5h2Zm226.6-3.79h-2V150.9a6.39,6.39,0,0,0-.71-3L352,147a8.35,8.35,0,0,1,.94,3.87Zm-225.33-5.3-1.6-1.19a8.28,8.28,0,0,1,4.62-3.11l.49,1.94A6.33,6.33,0,0,0,127.57,147.05Zm219.54-2a6.21,6.21,0,0,0-2.51-.53h-2v-2h2a8.24,8.24,0,0,1,3.32.7Zm-9.51-.53h-5v-2h5Zm-10,0h-5v-2h5Zm-10,0h-5v-2h5Zm-10,0h-5v-2h5Zm-10,0h-5v-2h5Zm-10,0h-5v-2h5Zm-10,0h-5v-2h5Zm-10,0h-5v-2h5Zm-10,0h-5v-2h5Zm-10,0h-5v-2h5Zm-10,0h-5v-2h5Zm-10,0h-5v-2h5Zm-10,0h-5v-2h5Zm-10,0h-5v-2h5Zm-10,0h-5v-2h5Zm-10,0h-5v-2h5Zm-10,0h-5v-2h5Zm-10,0h-5v-2h5Zm-10,0h-5v-2h5Zm-10,0h-5v-2h5Zm-10,0h-5v-2h5Z" transform="translate(0.1 -0.1)"/><g class="cls-3"><path class="cls-2" d="M138.55,18c.58,0,.73.27.73.72v1.9c0,.44-.15.72-.73.72H131v2.69h3.25c4.41,0,6.51,1.53,6.51,5s-2.27,5.21-6.56,5.21h-6.39c-.57,0-.72-.27-.72-.72V18.75c0-.57.27-.72.72-.72ZM131,27.29V30.9h3.17c1.87,0,2.77-.54,2.77-1.83s-.75-1.78-2.69-1.78Z" transform="translate(0.1 -0.1)"/><path class="cls-2" d="M156.71,29.1c0,3.9-3.74,5.58-6.71,5.58s-6.66-1.68-6.66-5.58V23.27c0-3.91,3.69-5.59,6.66-5.59s6.71,1.68,6.71,5.59Zm-3.91-5.49c0-1.58-1.15-2.49-2.8-2.49a2.47,2.47,0,0,0-2.77,2.49v5.14a2.8,2.8,0,0,0,5.57,0Z" transform="translate(0.1 -0.1)"/><path class="cls-2" d="M173.3,18.77V33.59c0,.57-.27.72-.72.72h-2.47c-.45,0-.72-.15-.72-.72V28h-5.57v5.58c0,.57-.25.72-.72.72h-2.47c-.45,0-.72-.15-.72-.72V18.77c0-.57.27-.72.72-.72h2.47c.47,0,.72.15.72.72v5.58h5.57V18.77c0-.57.27-.72.72-.72h2.47C173,18.05,173.3,18.2,173.3,18.77Z" transform="translate(0.1 -0.1)"/><path class="cls-2" d="M191,18.75l-7.25,14.87c-.33.64-.55.69-1.1.69h-2.77c-.38,0-.5-.47-.3-.77l1.87-3.78-5.56-11c-.13-.32,0-.72.45-.72h3a.86.86,0,0,1,1,.64L182,22.2l1.5,3.39L185,22.23l1.7-3.46c.25-.52.4-.74,1.05-.74h2.77C191,18,191.09,18.43,191,18.75Z" transform="translate(0.1 -0.1)"/><path class="cls-2" d="M199.45,34.68c-3,0-6.69-1.7-6.69-5.58V23.27c0-3.88,3.72-5.59,6.69-5.59s6.16,1.56,6.48,4.7c0,.59-.2.71-.77.71h-2.39c-.53,0-.55-.47-.75-.76a2.65,2.65,0,0,0-2.57-1.19c-1.65,0-2.77.92-2.77,2.47v5.14c0,1.58,1.12,2.47,2.77,2.47,1.34,0,2.42-.49,2.62-1.68.07-.49.12-.89.67-.89h2.45c.54,0,.74.25.74.84C205.93,32.68,202.54,34.68,199.45,34.68Z" transform="translate(0.1 -0.1)"/><path class="cls-2" d="M222.45,18.77V33.59c0,.57-.28.72-.73.72h-2.47c-.44,0-.72-.15-.72-.72V28H213v5.58c0,.57-.25.72-.73.72h-2.46c-.45,0-.73-.15-.73-.72V18.77c0-.57.28-.72.73-.72h2.46c.48,0,.73.15.73.72v5.58h5.56V18.77c0-.57.28-.72.72-.72h2.47C222.17,18.05,222.45,18.2,222.45,18.77Z" transform="translate(0.1 -0.1)"/><path class="cls-2" d="M229.28,18.05c.45,0,.73.15.73.72v8.57l5.28-8.45c.33-.49.5-.84,1.13-.84h2.34c.58,0,.73.28.73.72V33.59c0,.57-.28.72-.73.72h-2.47c-.45,0-.72-.15-.72-.72V25l-5.29,8.47c-.32.49-.5.84-1.12.84h-2.27c-.58,0-.73-.27-.73-.72V18.77c0-.57.28-.72.73-.72Z" transform="translate(0.1 -0.1)"/><path class="cls-2" d="M243.9,18.05h2.4c.45,0,.72.15.72.72v8.57l5.29-8.45c.32-.49.5-.84,1.12-.84h2.35c.57,0,.72.28.72.72V33.59c0,.57-.27.72-.72.72h-2.47c-.45,0-.73-.15-.73-.72V25l-5.29,8.47c-.32.49-.49.84-1.12.84H243.9c-.57,0-.72-.27-.72-.72V18.77C243.18,18.2,243.45,18.05,243.9,18.05ZM254,12.79h-1.25c-.25,0-.32.23-.4.4a2.64,2.64,0,0,1-4.44,0c-.07-.17-.15-.4-.4-.4H246.3c-.33,0-.25.45-.23.5.28,2.07,2.05,3,4.09,3s3.8-1,4.1-3C254.26,13.24,254.33,12.79,254,12.79Z" transform="translate(0.1 -0.1)"/><path class="cls-2" d="M287.61,18.75l-5.61,6,5.36,8.75c.2.32.1.79-.37.79h-3.05a1.36,1.36,0,0,1-1.25-.79s-2.22-3.71-3.56-5.93l-1.55,1.61v4.39c0,.57-.27.72-.7.72h-2.47c-.47,0-.72-.15-.72-.72V18.77c0-.57.25-.72.72-.72h2.47c.43,0,.7.15.7.72v5.51l5.16-5.63a1.31,1.31,0,0,1,1.25-.6h3.37C287.83,18.05,287.83,18.52,287.61,18.75Z" transform="translate(0.1 -0.1)"/><path class="cls-2" d="M304,18.75l-7.26,14.87c-.32.64-.54.69-1.09.69h-2.77c-.38,0-.5-.47-.3-.77l1.87-3.78-5.56-11c-.13-.32,0-.72.44-.72h3a.86.86,0,0,1,1,.64L295,22.2l1.5,3.39L298,22.23l1.7-3.46c.25-.52.4-.74,1.05-.74h2.77C304,18,304.1,18.43,304,18.75Z" transform="translate(0.1 -0.1)"/><path class="cls-2" d="M319.69,18.77V33.59c0,.57-.27.72-.72.72H316.5c-.45,0-.73-.15-.73-.72V21.51h-5.56V33.59c0,.57-.25.72-.72.72H307c-.45,0-.73-.15-.73-.72V18.77c0-.57.28-.72.73-.72h12C319.42,18.05,319.69,18.2,319.69,18.77Z" transform="translate(0.1 -0.1)"/><path class="cls-2" d="M336.28,29.1c0,3.9-3.74,5.58-6.71,5.58s-6.66-1.68-6.66-5.58V23.27c0-3.91,3.69-5.59,6.66-5.59s6.71,1.68,6.71,5.59Zm-3.92-5.49c0-1.58-1.14-2.49-2.79-2.49a2.47,2.47,0,0,0-2.77,2.49v5.14a2.8,2.8,0,0,0,5.56,0Z" transform="translate(0.1 -0.1)"/><path class="cls-2" d="M352.87,18.77V33.59c0,.57-.27.72-.72.72h-2.47c-.45,0-.73-.15-.73-.72V28h-5.56v5.58c0,.57-.25.72-.72.72H340.2c-.45,0-.73-.15-.73-.72V18.77c0-.57.28-.72.73-.72h2.47c.47,0,.72.15.72.72v5.58H349V18.77c0-.57.28-.72.73-.72h2.47C352.6,18.05,352.87,18.2,352.87,18.77Z" transform="translate(0.1 -0.1)"/></g><g class="cls-3"><path class="cls-2" d="M177.4,106.62v6.89c0,1.51-.51,2.43-2.46,2.43H148.66c-1.95,0-2.46-.92-2.46-2.43v-6.89c0-1.51.51-2.43,2.46-2.43h7.21V81.7h-7.21c-1.95,0-2.46-.84-2.46-2.43v-6.8c0-1.6.51-2.44,2.46-2.44h1.87c1.61,0,5.34-.75,5.34-7.05.08-1.76,1-2.18,2.46-2.18h8.22c1.44,0,2.37.42,2.46,2.18v41.21h5.93C176.89,104.19,177.4,105.11,177.4,106.62Z" transform="translate(0.1 -0.1)"/><path class="cls-2" d="M225.71,98.65c0,12.09-10.59,18.55-20.93,18.55-10.77,0-20.09-7-20.09-16,0-2.09.42-2.43,2.29-2.43h7.63c1.35,0,1.78.17,2,1.59,1,3.36,4.41,5.12,8.14,5.12,5.51,0,8.56-3.19,8.56-7.72,0-4-3.65-7.55-8.39-7.55-4.16,0-6.11,1.34-8.48,3.1a3.07,3.07,0,0,1-1.86.34h-7c-1.78,0-2.29-.34-2.29-2.52l2.12-27.94c.08-1.51.5-2.44,2.37-2.44H220c2,0,2.46.93,2.46,2.44v6.88c0,1.51-.51,2.43-2.46,2.43h-21l-.76,9.82a18.61,18.61,0,0,1,8.73-2.1C217.66,80.27,225.71,87.74,225.71,98.65Z" transform="translate(0.1 -0.1)"/><path class="cls-2" d="M276.4,78.51V98.15c0,13.26-11.78,19-21.19,19s-21.1-5.79-21.1-19V78.51c0-13.26,11.78-19.05,21.1-19.05S276.4,65.25,276.4,78.51ZM264,80.36c0-5.37-3.65-9.15-8.82-9.15s-8.73,3.78-8.73,9.15V96.3c0,5.37,3.56,9.15,8.73,9.15S264,101.67,264,96.3Z" transform="translate(0.1 -0.1)"/></g><path class="cls-2" d="M310.4,53.7a18.53,18.53,0,0,0-11.7,6.6,22.25,22.25,0,0,0-3.9,8.9c-.2,1.6-.2,1.7,1,2.3a19.53,19.53,0,0,0,4.6,1.2c4.7.7,4.7.7,4.7-.5,0-1.7,2-5.5,3.6-6.8,3.1-2.6,9.5-3.1,13.6-1.1A9.54,9.54,0,0,1,327.4,75l-.4,2H290.5v3.7c0,3,.1,3.8.6,4,.3.1,5.2.2,10.8.2s10.1.1,10.1.2a23.34,23.34,0,0,1-3.6,1.1c-4.7,1.4-7.8,3-10.2,5.3-2,2-2,2-4.4,2a14.28,14.28,0,0,0-2.9.3c-.3.2-.4,1.2-.2,3.8l.3,3.5h2.4v3.1c.1,11.2,7.2,18.7,19.1,20.4,5.9.8,12.6-.6,16.7-3.4a17.76,17.76,0,0,0,7.7-11.2c.6-3.1.1-3.7-3.4-4.5-1.6-.3-3.2-.7-3.7-.8-.7-.1-.9.1-1.6,2.2-1,2.9-1.7,4-3.8,5.7-2.2,1.9-3.8,2.5-7,2.8-8.1.6-14.1-4.6-13.6-11.9l.1-1.9h37.5V97.9c0-3.6,0-3.7-.8-4-.5-.1-7.2-.2-15-.2s-14-.1-13.9-.3a48,48,0,0,1,6-1.9c6.4-1.8,10.4-3.5,12.4-5.3l1.3-1.2h4.5a19.89,19.89,0,0,0,4.9-.3c.3-.2.5-1.7.6-4.2l.1-3.8h-5.7l.1-3.3a19.57,19.57,0,0,0-1.8-10.1,17.84,17.84,0,0,0-13-9.4A34.86,34.86,0,0,0,310.4,53.7Z" transform="translate(0.1 -0.1)"/></g><g id="Слой_2" data-name="Слой 2"><path class="cls-4" d="M70.9,93c.3,0,.4,0,.5-.3s.2-.4,0-.7-.7-.4-.9-.1A.63.63,0,0,0,70.9,93Z" transform="translate(0.1 -0.1)"/><path class="cls-4" d="M63,85.5l.3-.3a4.17,4.17,0,0,1,.6-.8c.4-.4.5-.4,1.6-.8a57,57,0,0,1,8-2c1.8-.2,3.4.5,5.3,2.4,1.1,1.1,1.1,1.1.8-.5-.8-4.4-1.8-7-3.7-9.1-1.4-1.5-2.5-2.3-6.3-4.2A35,35,0,0,1,64.1,67a14.8,14.8,0,0,1-3.9-4c-.2-.3-.5-.9-.7-1.3l-.4-.7-.3.5a9.29,9.29,0,0,1-3,2.9,25.84,25.84,0,0,1-6.5,2.5c-4.4,1.2-5.7,1.7-7.4,2.6A15.62,15.62,0,0,0,34.4,77a19.31,19.31,0,0,0-1.5,4,33,33,0,0,0-.8,3.8c0,.1.4-.2.8-.7a8.66,8.66,0,0,1,3.6-2.4,8.53,8.53,0,0,1,3.2,0,80.06,80.06,0,0,1,7.8,2.2,2.55,2.55,0,0,1,.9,1.1,1.41,1.41,0,0,0,.3.5c.1,0,.1-.1-.1-.6a2.25,2.25,0,0,1-.1-.7c0-.3.6.4.8,1a6,6,0,0,1,.2,2.2c-.1.1-.2.1-.8,0a23.09,23.09,0,0,1-5.8-1.8A30.92,30.92,0,0,0,38.2,84c-1.6-.3-2.8-.1-5,.8a10.4,10.4,0,0,1-1.2.5,22.11,22.11,0,0,0-.4,3.6,43.47,43.47,0,0,0,0,9,39.93,39.93,0,0,0,2.8,8.3c1.2,2.8,3,7.2,3.5,8.7a35.11,35.11,0,0,1,1.2,4.9,21.29,21.29,0,0,1,.4,4.6c.1,2.2.1,2.4.7,3.3a54.6,54.6,0,0,0,6.2,6.6c2.4,2,3.6,2.8,5.5,3.3a12.66,12.66,0,0,0,5.3.5,12.08,12.08,0,0,0,7.3-3.1c2.2-1.8,6.7-6.6,7.3-8,.2-.5.2-.5.3-2.7.2-5.6.8-8,4.5-16.6,2.4-5.7,3.2-8,3.6-10.4A80.47,80.47,0,0,0,80,86.7l-.1-1.3-1.2-.5A7.12,7.12,0,0,0,75,84c-1.3,0-2,.2-4.9,1.2-4.3,1.6-6.3,2.2-7.3,2.2h-.5l-.1-.3a3.58,3.58,0,0,1,.8-2.8c.3-.3.3-.2.1.5C63,85.3,62.9,85.5,63,85.5Zm-3.5,6.3a6,6,0,0,1,1.8-2.9c.3-.2.6-.2.6-.1a1.73,1.73,0,0,1-.3.4,15.67,15.67,0,0,0-2.1,5.2c-.2.9-.2.9-.3.9s-.1,0-.1-.1C59.1,94.7,59.4,92.2,59.5,91.8Zm-1.9,6.6c0-.1.1-.1.2,0s.2.2,0,.3S57.5,98.5,57.6,98.4Zm-1.7,1.8a.2.2,0,1,1,0,.4c-.2,0-.2,0-.2-.2S55.7,100.2,55.9,100.2Zm-.8-3.1c.2-.1.3-.1.4.1a.22.22,0,0,1-.3.3C55,97.4,54.9,97.1,55.1,97.1Zm-1.6,5.4c0-.1.1-.1.1,0s.1.1,0,.1S53.5,102.6,53.5,102.5ZM51.8,91.1a11.73,11.73,0,0,1,1.3,4,37.43,37.43,0,0,1,0,5.8,24.85,24.85,0,0,1-.8,3.4c-.1.3-.4.5-.5.4a10.3,10.3,0,0,1,.1-1.3,29.3,29.3,0,0,0,.3-6.1,34.53,34.53,0,0,0-.5-5.5c-.1-.5-.2-.8-.2-.9S51.7,90.9,51.8,91.1Zm-.4,19.2a5.64,5.64,0,0,1,.7-.1c.6,0,1,.2,2,.9s1.2.8,1.9.8a2.59,2.59,0,0,0,1.8-.7c1.2-.8,1.7-1,2.3-.8s.7.4.6.6-.3.4-1,.5a2.25,2.25,0,0,0-1.6.8,3,3,0,0,1-1,.7c-.9.5-2.1.3-3.3-.7a3.74,3.74,0,0,0-2.3-.9.46.46,0,0,1-.5-.3C50.9,110.6,51,110.4,51.4,110.3Zm-1-3.7-.2.6a5.05,5.05,0,0,0-.2,3.6,2.08,2.08,0,0,0,1.1,1.2q.75.45,0,.3a2.71,2.71,0,0,1-2-1.6,4.05,4.05,0,0,1,.8-3.9C50.2,106.5,50.4,106.4,50.4,106.6Zm-.5-5.4c0-.1.1-.1.1,0s.1.1,0,.1S49.8,101.3,49.9,101.2Zm-.7-2.1c.1-.1.1-.1.2-.1a.32.32,0,0,1,.1.6C49.3,99.8,49,99.4,49.2,99.1Zm-11.9,2.2a.32.32,0,0,1-.2-.6c.2-.2.2-.2.4,0A.32.32,0,0,1,37.3,101.3Zm2.2,4.1c-.3.1-.6-.2-.3-.5.1-.1.1-.1.2-.1C39.7,104.9,39.8,105.3,39.5,105.4Zm1.6-2.7c-.2-.2-.3-.3-.1-.5s.5-.2.6,0A.36.36,0,0,1,41.1,102.7Zm2.3,4.6c-.3.2-.6-.2-.4-.5a.37.37,0,0,1,.3-.1C43.6,106.7,43.7,107.1,43.4,107.3ZM45,104c-.2.3-.4.3-.5.2a.37.37,0,0,1,0-.6C44.7,103.3,45.2,103.6,45,104Zm-.3-12a2,2,0,0,1,.1.9,1.94,1.94,0,0,1-.3,1.3,2.56,2.56,0,0,1-1.4,1.3,2.17,2.17,0,0,1-1.2.2,2.74,2.74,0,0,1-1.3-.2A3,3,0,0,1,39,91.8c0-.1,0-.1-.1-.1A4.8,4.8,0,0,0,37,92.8c-.8.7-.9.8-1.5.8a3,3,0,0,1-2.2-1.1c-.1-.3-.3-.5-.3-.6a4.2,4.2,0,0,1,.5-.2,7.08,7.08,0,0,0,2.1-1.1A10.29,10.29,0,0,1,40,88.8a11.38,11.38,0,0,1,1.9,0,5.73,5.73,0,0,1,2.2.3,8.71,8.71,0,0,1,3.7,2.2c.7.6.9.9.7.9l-.6-.4a13.7,13.7,0,0,0-3.6-1.9c-1-.3-3.7-.3-3.5-.1a5.85,5.85,0,0,0,1,.1c.5.1,1.2.2,1.6.3a16,16,0,0,1,2.7,1.2,13.94,13.94,0,0,1,3,3.1c0,.1-.6.3-1.6.4-.6.1-.6,0-.1-.4.2-.2.3-.3.3-.4A7.12,7.12,0,0,0,45.2,92C44.6,91.7,44.5,91.7,44.7,92Zm3.9,11.2c0,.2-.3.3-.5.1s-.1-.1,0-.3l.2-.2C48.5,102.8,48.6,103.1,48.6,103.2Zm-2.4-2c-.3.2-.6-.2-.3-.5.1-.1.1-.1.3,0A.28.28,0,0,1,46.2,101.2Zm14.2,25.3a9.35,9.35,0,0,1-2.7.9,13.63,13.63,0,0,1-4.5-.2,4.88,4.88,0,0,1-2.5-1.2c-.5-.5-.5-.7-.2-.7a4.55,4.55,0,0,1,1.1.3,8.81,8.81,0,0,0,3.6.6,12.86,12.86,0,0,0,5.3-.8c.4-.1.7-.3.8-.3C61.7,125.1,61,126.1,60.4,126.5Zm3.3,5.7a1,1,0,0,1-1.5-.7.78.78,0,0,1,.1-.8,1.21,1.21,0,0,1,.5-.5,1.06,1.06,0,0,1,1.5.5C64.5,131.4,64.3,132,63.7,132.2Zm3.1-10.7a1.23,1.23,0,0,1-1,.5c-.2,0-.7.1-1.3.2a13.61,13.61,0,0,1-2.1.2,35.77,35.77,0,0,0-4.9.3c-.6.1-1.2.2-1.4.2s-.9-.1-1.5-.2a19.49,19.49,0,0,0-4.7-.3c-2.3,0-2.9,0-3.3-.2-.8-.2-1.2-.5-1.2-.7s.3-.4,1.4-.4,1.5-.1,3.6-1.1c2.5-1.2,2.9-1.3,4.2-.6s1.6.7,2.7.1c.3-.2.7-.4.8-.5s.4-.1.5-.1a12.56,12.56,0,0,1,3,1.1,13,13,0,0,0,3.1,1.2c.5.1.6.1.7-.1.5-.6.5-.7.8-.7a.94.94,0,0,1,.8.6A.55.55,0,0,1,66.8,121.5ZM63.2,103l.2-.2.2.2a.19.19,0,0,1,0,.3.37.37,0,0,1-.3.1c-.1,0-.2-.1-.3-.1A.77.77,0,0,0,63.2,103Zm2.3-2.3c.2-.1.2-.1.4.1s.2.2,0,.4-.2.2-.3.1S65.3,100.8,65.5,100.7Zm1.8,3.5c-.2.1-.2.1-.4-.1s-.2-.3,0-.5.4-.2.5,0S67.5,104.1,67.3,104.2Zm.9,3.1a.28.28,0,0,1,0-.5c.2-.1.4-.1.5.1S68.5,107.5,68.2,107.3Zm2.5-4.6-.2.2-.2-.2-.2-.2.2-.2c.1-.1.2-.2.3-.2a1.24,1.24,0,0,0,.3.2l.2.2Zm1.5,2.7c-.2,0-.3-.2-.2-.5s.5-.2.5.1S72.5,105.5,72.2,105.4Zm2.3-4.2c-.4.2-.7-.3-.3-.6.2-.1.2-.1.4,0S74.8,101.1,74.5,101.2ZM63.1,94.1a37,37,0,0,1,2.8-2.8,8.75,8.75,0,0,1,2.6-1.2,10.93,10.93,0,0,1,2.4-.4c.1,0,.1,0,.1-.1a5,5,0,0,0-1.9-.1,11.34,11.34,0,0,0-5.2,2c-.4.3-.7.5-.7.5a7.8,7.8,0,0,1,2.1-2.1,8.69,8.69,0,0,1,4-1.4,4,4,0,0,1,1.1,0c.1,0,.6.1.9.1a9.82,9.82,0,0,1,5,2,3.56,3.56,0,0,0,2.1,1c.5.1.5.2,0,.7a3.67,3.67,0,0,1-1.7,1c-.8.2-1.1.1-1.9-.6a6.71,6.71,0,0,0-2-1.2,1.75,1.75,0,0,0,.1.5,3.08,3.08,0,0,1,.1,1,2.86,2.86,0,0,1-3.4,2.6A2.73,2.73,0,0,1,67,92.9a1.72,1.72,0,0,1,.1-.8c0-.1.1-.2,0-.2s-1.5.9-2,1.2a4.62,4.62,0,0,0-.7.7l-.2.4.3.3a1.73,1.73,0,0,0,.4.3.1.1,0,0,1,.1.1.44.44,0,0,1-.3.1,7.43,7.43,0,0,1-1.8-.3C62.8,94.5,62.9,94.3,63.1,94.1Zm-.2,15.7a2.81,2.81,0,0,1-1.7,2.3c-1,.3-1.2.2-.5-.2a2.42,2.42,0,0,0,1.1-1.3c.3-.5.3-.6.3-1.5a5.08,5.08,0,0,0-.5-2.4c0-.1.1,0,.3.2A5.07,5.07,0,0,1,62.9,109.8Zm-.6-10.2c.1.2,0,.4-.2.4s-.3-.2-.2-.4A.21.21,0,0,1,62.3,99.6Z" transform="translate(0.1 -0.1)"/><path class="cls-4" d="M43.2,91.9a.61.61,0,0,0-.8,0c-.3.3-.4.6-.1.9.1.2.3.2.5.2C43.4,93,43.7,92.2,43.2,91.9Z" transform="translate(0.1 -0.1)"/><path class="cls-4" d="M90.7,66.5l.4.2.5-1c.3-.5.9-1.8,1.3-2.7a94.83,94.83,0,0,1,5.9-11c.9-1.4,2.6-3.9,3.1-4.5a.91.91,0,0,0,.3-.5c0-.2-2.9,0-4.3.3A36.76,36.76,0,0,0,85,52.6a1.79,1.79,0,0,1-.8.4,25.16,25.16,0,0,1,1.2-3.9c.8-2.2,1.9-5,2.6-6.5.6-1.2,2.8-5.4,3.1-5.9l.2-.2-.7.1a35.64,35.64,0,0,0-12.5,3.8,40.57,40.57,0,0,0-8.2,5.7c-.8.7-1.1.8-1.1.5s-2-5.7-3.7-10.6l-.3-.8L66,34.1c1.4-1.3,6-5.8,7.3-7l.9-.9h-.3c-.2,0-2.1-.2-4.4-.4s-5-.4-6.1-.5l-2.2-.2c-.1-.1-2.7-5.7-3.7-8.1-.5-1.1-1-2.3-1.2-2.7l-.4-.8-.5,1.1c-.6,1.2-2.2,4.9-3.8,8.4a13.88,13.88,0,0,1-1,2.1l-2.2.2c-1.2.1-3.1.2-4.2.3s-3,.3-4.3.4l-2.3.2a3.61,3.61,0,0,1,.4.5c.3.2,2.2,2.1,4.2,4.1s3.9,3.8,4.2,4l.4.4-.2.6c-.1.3-.5,1.3-.8,2.1s-.9,2.4-1.2,3.4-1,2.7-1.3,3.7a6,6,0,0,1-.7,1.8l-1-.8a44.69,44.69,0,0,0-4.1-3.2,37.85,37.85,0,0,0-4.1-2.5,40.56,40.56,0,0,0-10.1-3.5c-.8-.1-2.8-.3-2.9-.3l1.1,2A63.55,63.55,0,0,1,27.2,52c.2.8.3,1,.2,1a2.8,2.8,0,0,1-.8-.5,59.52,59.52,0,0,0-5.4-3,53,53,0,0,0-5.6-1.9,25.88,25.88,0,0,0-5.6-.8H9.4l.2.3c.6.8,3.5,5.2,4.2,6.4a100.62,100.62,0,0,1,5.1,9.8,19.07,19.07,0,0,0,1.6,3.2l2.6-1.3A62.76,62.76,0,0,1,33.3,61a73.46,73.46,0,0,1,34.9-2.5,66,66,0,0,1,17.2,5.2C87.2,64.7,90.2,66.1,90.7,66.5ZM63.8,50.2a68.54,68.54,0,0,0-8.9-.4c-3,0-6.7.3-9.3.5h-.5c.1-.2,2.1-1.8,4.8-3.9,1.1-.9,2.9-2.2,4-3.1s2-1.5,2-1.5a1.44,1.44,0,0,1,.3.2,18.37,18.37,0,0,1,2,1.6c1,.7,2.3,1.7,2.9,2.2s1.6,1.3,2.2,1.7,1.3,1,1.6,1.3a8.7,8.7,0,0,1,1.1.9,4.43,4.43,0,0,0,.6.5C66.5,50.5,66.4,50.5,63.8,50.2Z" transform="translate(0.1 -0.1)"/><path class="cls-4" d="M105.3,160.9c-.7,1.3-.6,1.3.1.2.5-.7,4.2-4.3,5.4-7.3.9-1.8,2-8,1.5-9.8-.8-2.8-1.8-5.3-5.4-10.3-.7-1-1.6-2.2-1.9-2.7a24.87,24.87,0,0,1-3.3-6.1,16.38,16.38,0,0,1,0-9.1c.3-1.3,1.1-4.9,1.6-6.6a38.66,38.66,0,0,0,1.2-7.7,31.74,31.74,0,0,0-1-9.9c-.3-1.2-1.2-4-1.7-5.3a45.35,45.35,0,0,0-3.2-6.2,38.4,38.4,0,0,0-4.4-5.4c-1.2-1.2-1.7-1.6-1.8-1.4a1.46,1.46,0,0,0,.3.5c.8,1.2,3.1,5.1,3.7,6.4a37.74,37.74,0,0,1,4.3,17.2c0,4.1-.4,6.8-2.1,12.7a43.06,43.06,0,0,0-1.9,9.7,16.84,16.84,0,0,0,2.5,9.9c.3.5,1.4,2.3,2.5,3.9s2.4,3.6,2.9,4.4a23.83,23.83,0,0,1,3.8,8.3,28.27,28.27,0,0,1,.2,5A64,64,0,0,1,105.3,160.9Z" transform="translate(0.1 -0.1)"/><path class="cls-4" d="M65.8,179.2a20.32,20.32,0,0,1,.6-4.4,28.17,28.17,0,0,1,4-8.4c.6-1,1.2-2,1.4-2.3s1-1.5,1.7-2.7c3.3-5.2,4.6-9,4.6-12.7a13.86,13.86,0,0,0-1-5.3,24.59,24.59,0,0,0-2.8-5.1,29.34,29.34,0,0,1-2.9-4.9,4.42,4.42,0,0,1-.3-.8,34.64,34.64,0,0,0-2.7,2.2c-1.5,1.2-3.5,2.7-4.5,3.4-4.3,2.6-8.4,3.1-12.6,1.6a21,21,0,0,1-5.1-2.7,37.68,37.68,0,0,1-3.7-3c-1.4-1.2-2-1.6-2-1.3a17.13,17.13,0,0,1-2.1,3.9c-.1.2-.6.9-1.1,1.6-3.5,5.1-4.5,8.9-3.5,13.6a28,28,0,0,0,2.6,6.7c.7,1.2,3.5,5.8,4.6,7.5a40.36,40.36,0,0,1,4,8.1,19.23,19.23,0,0,1,.8,6.2,15.42,15.42,0,0,1-.2,2.4l-.1.8h3.4a5.12,5.12,0,0,0,2.2-.6c.6-.3,1.7-3.4,4.3-3.4s3.3,1.9,3.8,2.4a7.77,7.77,0,0,0,3.3,1.6,20,20,0,0,0,3.8.2A17.09,17.09,0,0,1,65.8,179.2Z" transform="translate(0.1 -0.1)"/><path class="cls-4" d="M80.1,175.7c.6-3.1,1.8-5.5,5.3-11,2.8-4.5,4.3-7.4,5.1-10.1a17.13,17.13,0,0,0-1.2-13.3c-.8-1.5-.7-1.5-4.9-7.7-2.3-3.4-3.3-5.7-3.8-8.5a11.93,11.93,0,0,1-.2-3c0-3.9.8-7.1,3.5-14,2.5-6.3,3.2-9.3,3.5-14.1a38.13,38.13,0,0,0-1.7-12.5,42.43,42.43,0,0,0-6.6-12.1c-1.5-1.7-2.9-3.3-3.4-3.7-1.1-.8-1.7-1-1.5-.5a20.58,20.58,0,0,0,1.8,3,39,39,0,0,1,6.3,15.2,30.6,30.6,0,0,1,.7,7.3c0,5.9-.9,9.5-4.2,17.2-2.5,5.8-3.7,9.7-4,13a41.62,41.62,0,0,0,0,5,20.36,20.36,0,0,0,1,3.9,37.11,37.11,0,0,0,3.8,6.8c2.4,3.7,3,4.6,3.8,6.7a16,16,0,0,1,0,11.4,43.16,43.16,0,0,1-4.7,8.8c-5,7.7-6.5,10.9-6.4,15.7a6.09,6.09,0,0,1,3.2.2c1.3.7.7,2.1,2,3.1a3.52,3.52,0,0,0,2.5.7S79.6,177.8,80.1,175.7Z" transform="translate(0.1 -0.1)"/><path class="cls-4" d="M87.3,182.6a17.12,17.12,0,0,1,.1-8.7,42.27,42.27,0,0,1,5-10.1c.9-1.3,2.8-5,3.5-6.4,1.6-3.6,2.3-7.5,1.7-10.6s-1.7-5.6-4.8-10.2a51,51,0,0,1-4.4-7.3,18.16,18.16,0,0,1-1.8-10.6,44.32,44.32,0,0,1,2.4-9.6c1.9-5.6,2.6-8.3,3-11.3a61.69,61.69,0,0,0,0-8.6,47.87,47.87,0,0,0-2.5-9.6,47.74,47.74,0,0,0-4.2-7.8c-.3-.4-.9-1.2-1.2-1.7-1-1.3-1.4-2-1.3-2,.2-.2,1.5.7,2.6,1.6A34.71,34.71,0,0,1,89.9,75c6.1,9.4,8,18.7,5.7,28.8-.3,1.5-1,3.7-1.7,6.1-1.7,5.3-2.2,7.7-2.2,10.9a16.43,16.43,0,0,0,1,6c1,2.5,1.6,3.6,4.9,8.3,3.6,5.2,4.8,7.7,5.5,11.6a14.18,14.18,0,0,1,.1,4.1,25.72,25.72,0,0,1-.8,3.8c-.8,2.6-2,5.3-5,10.5-1.3,2.4-2,3.6-2.5,4.8a17.07,17.07,0,0,0-1.6,9.4,7.36,7.36,0,0,0-2.9.6A11.32,11.32,0,0,0,87.3,182.6Z" transform="translate(0.1 -0.1)"/><path class="cls-4" d="M0,154a16.4,16.4,0,0,0,4.1,5.4,11.42,11.42,0,0,1,3.2,4l-.2-1.2s-1.6-3.7-2.1-4.6a16.54,16.54,0,0,1-1.8-5.8,12.79,12.79,0,0,1-.1-2.1s-2.2.8-2.7,2.1A6.48,6.48,0,0,0,0,154Z" transform="translate(0.1 -0.1)"/><path class="cls-4" d="M18.4,74.9a11.67,11.67,0,0,1,.9-1.4c0-.1,0-.1-.1-.1-.4,0-3.4,3.3-5.1,5.5A37.26,37.26,0,0,0,8.4,91.1c-.2.8-.6,2.9-.8,4.1-.8,5.1-.4,8.8,1.8,17.6,1,4.2,1.4,6.2,1.3,8.5a8.8,8.8,0,0,1-.3,2.6c-.7,2.6-1.8,4.6-5.2,9.3-1.4,2-3,4.4-3.9,5.8a13.9,13.9,0,0,0-1.1,2.1,2.65,2.65,0,0,0,.5,1.5c.4.6,1.2.3,1.8.6a4.42,4.42,0,0,1,1.4,1.3,32,32,0,0,1,3.4-6.6c4.7-7.1,5.1-7.6,6-9.4a19.79,19.79,0,0,0,1.7-4.8c.6-3.1,0-7.5-1.9-14.1a52.68,52.68,0,0,1-1.7-7.4,33.2,33.2,0,0,1,.2-10.4C12.4,86,14.4,81.3,18.4,74.9Z" transform="translate(0.1 -0.1)"/><path class="cls-4" d="M24.1,183.2c.2-.6.4-1.9.6-2.6a21,21,0,0,0-.2-5.6c-.6-2.9-1.8-5.6-4.6-10.3a71.75,71.75,0,0,1-4-7.2,20.55,20.55,0,0,1-2-8.8c.2-3.8,1.5-7.1,5-12.1,1.2-1.7,2.6-3.9,3.4-5.3a18.48,18.48,0,0,0,2.9-12.2c-.3-2.8-.8-4.9-2.6-10.1-1.3-4-1.8-5.6-2.2-7.1a35.41,35.41,0,0,1-.3-15.2,45.28,45.28,0,0,1,2.5-8.1,40.45,40.45,0,0,1,3.5-6.3c2.7-3.7,2.9-4.1,2.8-4.1-.3-.2-2.1,1.1-3.2,2.2A35,35,0,0,0,19.1,80a35.39,35.39,0,0,0-3.6,12.1,33.16,33.16,0,0,0-.1,6.3c.3,3.5,1.2,7.2,3,12.8,1.6,5,2,7,1.9,10.4a16.21,16.21,0,0,1-1.3,6,26.72,26.72,0,0,1-3.2,5.6c-3.8,5.7-4.3,6.3-5,7.8a16.67,16.67,0,0,0-2.1,8.7,16.91,16.91,0,0,0,.7,4.5,26,26,0,0,0,2.4,5.9c1.1,2.1,2.6,4.9,2.9,5.5a31,31,0,0,1,3.6,8.3,17.14,17.14,0,0,1,.3,5.5,6.28,6.28,0,0,1,3,.8c.6.4.9,1.6,1.4,2.2S24.1,183.3,24.1,183.2Z" transform="translate(0.1 -0.1)"/><path class="cls-4" d="M39.2,179.5c0-.2-.2-2.5-.2-2.7a25.44,25.44,0,0,0-3-7.9c-.7-1.2-1.3-2.3-3.6-5.9a35,35,0,0,1-4.2-8.1,15.91,15.91,0,0,1-.4-10.3,22.14,22.14,0,0,1,1.8-4.2c.3-.5,1.3-2.2,2.4-3.8a31.76,31.76,0,0,0,3.2-5.4,20,20,0,0,0,1.7-5.9,30.3,30.3,0,0,0-.1-5.2,40.73,40.73,0,0,0-2.7-9.5C31,103,30.5,101.7,30,99.8a35.81,35.81,0,0,1,.8-21.4,42.37,42.37,0,0,1,5.1-10.5,28.28,28.28,0,0,0,1.8-3.1c0-.7-1.7.5-3.4,2.5a37.45,37.45,0,0,0-6,8.7,35.58,35.58,0,0,0-4.1,17.4c.1,4.5,1.1,8.5,3.2,13.8a64.41,64.41,0,0,1,3.1,8.7,18.52,18.52,0,0,1,.8,5.9,13.8,13.8,0,0,1-.8,5.6c-.7,2.2-1.8,4.1-4.2,7.6-4,5.8-5.1,8.1-5.7,11.5a17.89,17.89,0,0,0,.6,8.2,39.09,39.09,0,0,0,4.6,9.2c3.8,5.9,5.2,8.9,5.8,12.3a19.83,19.83,0,0,1-.2,6.4l-.2.5a6.74,6.74,0,0,0,3.5-2.4C35.4,179.7,38.1,178.7,39.2,179.5Z" transform="translate(0.1 -0.1)"/></g></svg>