<?xml version="1.0" standalone="no"?>
<!DOCTYPE svg PUBLIC "-//W3C//DTD SVG 20010904//EN"
 "http://www.w3.org/TR/2001/REC-SVG-20010904/DTD/svg10.dtd">
<svg version="1.0" xmlns="http://www.w3.org/2000/svg"
 width="942.014589pt" height="1203.191634pt" viewBox="0 0 942.014589 1203.191634"
 preserveAspectRatio="xMidYMid meet">
<metadata>
Created by potrace 1.12, written by Peter Selinger 2001-2015
</metadata>
<g transform="translate(-8.985411,1244.283688) scale(0.100000,-0.100000)"
fill="#000000" stroke="none">
<path d="M4635 12439 c-946 -34 -1858 -349 -2580 -892 -332 -250 -671 -592
-914 -921 -114 -154 -213 -308 -204 -316 8 -7 1034 -706 1426 -971 192 -129
199 -133 213 -114 8 11 51 72 95 135 124 177 221 292 369 440 155 156 255 239
425 352 494 328 1101 449 1675 332 685 -139 1085 -593 1030 -1171 -30 -320
-165 -580 -458 -884 l-114 -119 -2752 -2 -2751 -3 -3 -647 -2 -648 2098 -2
2098 -3 -734 -580 -734 -580 -1361 -5 -1362 -5 -3 -647 -2 -648 850 0 851 0
-71 -91 c-226 -293 -382 -654 -451 -1044 -26 -153 -36 -443 -20 -610 43 -444
211 -856 488 -1200 164 -204 425 -432 663 -580 127 -79 409 -221 545 -274 455
-179 948 -284 1500 -322 246 -17 783 -6 995 20 958 117 1791 438 2505 966 382
282 739 649 994 1020 61 89 71 109 60 120 -25 22 -1669 1125 -1678 1125 -5 0
-33 -33 -62 -72 -448 -619 -981 -1009 -1596 -1168 -214 -56 -370 -73 -648 -73
-349 0 -581 32 -826 113 -416 138 -664 381 -760 746 -21 78 -24 112 -24 274 0
204 14 284 76 438 76 192 231 393 426 553 l71 59 2766 0 2766 0 0 650 0 650
-2127 2 -2128 3 720 582 720 583 1408 0 1407 0 0 650 0 650 -815 0 c-448 0
-815 2 -815 4 0 2 34 54 75 116 168 252 293 562 360 895 35 173 46 296 46 500
0 373 -72 687 -231 1010 -521 1058 -1840 1663 -3495 1604z"/>
</g>
</svg>
