<?xml version="1.0" standalone="no"?>
<!DOCTYPE svg PUBLIC "-//W3C//DTD SVG 20010904//EN"
 "http://www.w3.org/TR/2001/REC-SVG-20010904/DTD/svg10.dtd">
<svg version="1.0" xmlns="http://www.w3.org/2000/svg"
 width="392.846478pt" height="410.631098pt" viewBox="0 0 392.846478 410.631098"
 preserveAspectRatio="xMidYMid meet">
<metadata>
Created by potrace 1.12, written by Peter Selinger 2001-2015
</metadata>
<g transform="translate(-59.549503,461.426727) scale(0.100000,-0.100000)"
fill="#000000" stroke="none">
<path d="M2505 4605 c-27 -8 -53 -14 -57 -15 -19 -1 -127 -102 -223 -210 -132
-149 -176 -180 -255 -180 -31 0 -82 7 -113 15 -307 80 -438 76 -534 -17 -61
-59 -83 -130 -104 -336 -22 -226 -30 -257 -78 -302 -42 -40 -76 -58 -256 -135
-150 -64 -217 -110 -259 -178 -27 -43 -30 -57 -29 -127 0 -69 5 -88 35 -152
20 -40 65 -122 101 -181 77 -125 103 -197 93 -251 -8 -43 -53 -132 -117 -231
-25 -38 -60 -101 -79 -140 -30 -62 -34 -79 -34 -155 -1 -71 3 -91 21 -120 42
-68 122 -127 238 -176 190 -81 229 -100 269 -135 60 -53 72 -95 95 -325 11
-104 24 -202 31 -219 26 -67 70 -122 122 -150 76 -41 159 -44 318 -10 288 61
291 61 344 36 31 -16 76 -55 134 -120 165 -182 237 -248 295 -267 98 -33 191
-15 273 53 25 20 96 93 157 162 62 68 132 137 156 153 52 33 109 36 208 13
337 -79 444 -76 540 17 59 57 84 133 99 302 17 191 31 266 55 305 23 39 102
90 194 126 301 119 379 191 378 347 0 90 -20 139 -128 318 -86 141 -109 201
-101 259 6 43 61 155 116 236 15 22 47 78 70 125 41 80 44 90 44 170 0 61 -4
93 -16 115 -42 75 -123 132 -285 200 -154 65 -163 69 -211 105 -72 52 -88 101
-111 334 -18 181 -22 204 -51 262 -67 136 -175 169 -410 124 -58 -12 -132 -28
-165 -36 -33 -9 -85 -17 -116 -17 -73 -2 -110 23 -215 140 -146 164 -230 240
-282 257 -76 24 -104 26 -157 11z m-445 -926 c72 -17 165 -66 223 -119 74 -67
139 -168 312 -480 262 -473 269 -483 650 -870 277 -282 402 -416 438 -470 23
-33 22 -124 -2 -175 -24 -52 -75 -103 -126 -126 -43 -20 -138 -25 -177 -10
-13 5 -210 192 -438 416 l-415 406 -220 121 c-701 386 -750 419 -815 548 -43
85 -60 160 -60 266 0 117 25 201 84 281 70 96 169 166 286 204 62 20 190 24
260 8z m1533 -3 c100 -43 137 -164 79 -257 -31 -47 -130 -144 -255 -249 -42
-35 -77 -67 -77 -71 0 -4 16 -26 35 -49 57 -69 55 -74 -122 -250 -87 -87 -170
-165 -185 -174 -35 -23 -68 -13 -68 20 0 26 26 58 182 221 54 56 98 109 98
117 0 8 -65 82 -144 163 l-145 148 -88 -86 c-100 -98 -128 -119 -160 -119 -59
0 -40 53 55 152 98 103 167 158 198 158 16 0 37 -13 55 -32 28 -31 31 -32 56
-18 14 8 81 75 147 148 144 159 188 192 258 192 27 0 63 -6 81 -14z m-1564
-1283 c14 -26 -9 -63 -105 -165 -46 -49 -84 -94 -84 -98 0 -7 138 -158 255
-279 l34 -34 148 142 c164 158 193 179 216 156 9 -8 13 -24 10 -35 -6 -23
-274 -313 -322 -347 -43 -33 -69 -29 -116 16 l-40 40 -95 -110 c-52 -61 -129
-144 -171 -185 l-77 -74 -59 0 c-48 0 -68 5 -106 30 -67 42 -87 80 -87 163 0
67 0 68 47 118 26 28 107 103 180 167 73 63 133 118 133 121 0 4 -22 29 -50
56 -27 27 -50 52 -50 56 0 10 220 225 261 255 39 28 64 31 78 7z"/>
<path d="M1820 3593 c-8 -2 -21 -7 -29 -9 -23 -7 4 -27 74 -54 175 -68 267
-165 685 -722 106 -142 196 -258 201 -258 14 0 -13 58 -128 275 -117 221 -273
496 -335 592 -62 97 -140 146 -267 169 -76 13 -172 17 -201 7z"/>
<path d="M1659 3454 c-19 -23 2 -131 40 -209 62 -125 188 -238 674 -603 329
-249 352 -256 230 -76 -88 131 -314 430 -434 574 -170 204 -279 292 -400 319
-63 15 -95 13 -110 -5z"/>
<path d="M1539 3309 c-9 -22 -14 -69 -13 -134 1 -231 56 -285 587 -584 362
-203 457 -254 457 -243 0 14 -116 109 -330 272 -467 356 -587 475 -661 658
l-26 64 -14 -33z"/>
<path d="M2737 2371 c-48 -49 -87 -93 -87 -98 0 -5 25 -33 55 -63 l55 -54 23
24 c13 14 56 60 96 102 l73 77 -47 50 c-26 28 -55 51 -65 51 -9 0 -55 -40
-103 -89z"/>
<path d="M2922 2177 l-92 -93 252 -250 c139 -138 273 -265 297 -283 55 -39
112 -42 162 -8 73 49 78 114 17 196 -53 69 -514 531 -531 531 -7 0 -54 -42
-105 -93z m582 -510 c9 -15 6 -23 -17 -42 -15 -13 -34 -22 -42 -19 -21 8 -30
51 -14 70 16 19 59 14 73 -9z"/>
<path d="M3441 3555 c-61 -57 -197 -213 -234 -268 l-28 -42 35 -32 c20 -18 42
-33 49 -33 31 0 291 237 322 293 24 45 14 80 -29 106 -47 30 -61 27 -115 -24z"/>
<path d="M1727 1830 c-150 -132 -207 -194 -207 -227 0 -36 60 -93 98 -93 27 0
49 20 181 171 83 94 151 175 151 179 0 10 -78 80 -89 80 -5 0 -65 -49 -134
-110z"/>
</g>
</svg>
