<?xml version="1.0" standalone="no"?>
<!DOCTYPE svg PUBLIC "-//W3C//DTD SVG 20010904//EN"
 "http://www.w3.org/TR/2001/REC-SVG-20010904/DTD/svg10.dtd">
<svg version="1.0" xmlns="http://www.w3.org/2000/svg"
 width="479.904150pt" height="511.625895pt" viewBox="0 0 479.904150 511.625895"
 preserveAspectRatio="xMidYMid meet">
<metadata>
Created by potrace 1.12, written by Peter Selinger 2001-2015
</metadata>
<g transform="translate(-16.095850,511.731054) scale(0.100000,-0.100000)"
fill="#000000" stroke="none">
<path d="M385 5106 c-67 -21 -100 -43 -148 -96 -84 -94 -77 117 -75 -2275 l3
-2130 23 -46 c28 -58 92 -122 151 -151 l46 -23 1236 -3 1237 -2 -27 67 c-15
38 -36 98 -47 136 l-19 67 -1155 0 c-886 0 -1159 3 -1168 12 -9 9 -12 487 -12
2090 0 2044 0 2077 19 2088 30 16 3603 14 3619 -2 9 -9 12 -305 12 -1270 l0
-1258 140 0 141 0 -3 1283 -3 1282 -27 57 c-31 66 -90 127 -156 159 l-47 24
-1850 2 c-1472 1 -1858 -1 -1890 -11z"/>
<path d="M1155 3980 c-11 -4 -30 -19 -43 -32 -66 -71 -40 -183 51 -217 19 -8
366 -11 1103 -11 1163 0 1100 -3 1152 53 50 53 34 158 -30 197 -33 20 -47 20
-1123 19 -600 0 -1099 -4 -1110 -9z"/>
<path d="M1143 2860 c-45 -27 -66 -64 -66 -115 0 -51 21 -88 66 -115 31 -19
59 -20 1117 -20 1032 0 1087 1 1119 18 39 21 71 73 71 115 0 44 -28 94 -65
117 -32 20 -47 20 -1121 20 -1062 0 -1090 -1 -1121 -20z"/>
<path d="M2652 2017 c-29 -31 -28 -72 3 -102 23 -24 29 -25 162 -25 151 0 189
-10 224 -60 10 -14 81 -263 158 -555 146 -554 167 -626 201 -680 32 -53 93
-101 151 -121 50 -18 92 -19 607 -19 l554 0 19 24 c26 32 24 67 -6 96 l-24 25
-521 0 c-564 0 -593 2 -634 51 -22 26 -66 126 -66 149 0 6 231 10 623 10 610
0 624 0 642 20 18 20 215 789 215 841 0 14 -10 35 -23 47 l-23 22 -843 2 -843
3 -25 79 c-21 67 -33 87 -77 132 -73 72 -117 84 -306 84 -140 0 -147 -1 -168
-23z"/>
<path d="M1145 1752 c-39 -24 -54 -43 -65 -83 -13 -45 3 -98 40 -134 l31 -30
495 -3 c547 -3 535 -4 574 61 39 64 15 154 -51 189 -31 17 -68 18 -514 18
-448 0 -482 -1 -510 -18z"/>
<path d="M3565 341 c-40 -24 -61 -49 -80 -94 -21 -50 -19 -93 6 -145 51 -105
188 -132 280 -55 42 36 59 74 59 135 0 106 -73 178 -180 178 -36 0 -65 -6 -85
-19z"/>
<path d="M4364 341 c-17 -10 -40 -31 -52 -45 -114 -146 36 -351 206 -281 76
32 112 86 112 167 0 106 -73 178 -180 178 -36 0 -65 -6 -86 -19z"/>
</g>
</svg>
