<?xml version="1.0" encoding="utf-8"?>
<!-- Generator: Adobe Illustrator 24.1.2, SVG Export Plug-In . SVG Version: 6.00 Build 0)  -->
<svg version="1.1" id="Слой_1" xmlns="http://www.w3.org/2000/svg" xmlns:xlink="http://www.w3.org/1999/xlink" x="0px" y="0px"
	 viewBox="0 0 803.6 1150" style="enable-background:new 0 0 803.6 1150;" xml:space="preserve">
<style type="text/css">
	.st0{fill:#FFFFFF;}
	.st1{display:none;fill:#C90D0D;}
	.st2{display:none;fill:#7F0000;}
	.st3{fill:#C10000;}
</style>
<path class="st0" d="M23.8,4.5C11.3,4.6,0.4,10.9,0.3,23.4L18,63.1L-0.1,491.5c0,28.5,0,56.7,0,84.1L0,1150h803.2
	c0.1-280,0.1-431.9,0-597V23.3c0-12.6-11.6-20.8-24.3-21l-15.2,0.4c-27-0.3-40.2-1.1-44-0.3c-14.4,3-24.5,9.9-31.6,24.8
	c-5.1,10.6-8.8,14.7-16.4,17.2c-5.4,1.8-10.6,1.9-16.9,0.3c-5.7-1.4-14-9.3-16-15.3c-7.2-20.7-30.2-33.3-50.8-28
	c-8.8,2.1-13.8,5.1-20.3,11.2c-4.9,4.7-12,16-12,19.2c0,1.9-7.5,9.3-11.2,11.2c-5.6,2.9-14.3,3.5-20.1,1.6
	c-8-2.7-11.7-6.6-17.1-17.4c-7.3-14.8-15.7-22.1-29.8-25.9c-14.9-3.9-31.7,1.1-42.3,13c-3.3,4-6.1,8.3-8.3,13
	c-4.5,9.6-7.7,13-14.9,16.4c-4.4,2-6.4,2.3-11.5,2c-11.5-0.8-17.7-5.6-23.7-18.4c-2.1-4.7-5.1-9-8.3-13
	c-10.6-11.7-27.4-16.9-42.3-13c-13.9,3.7-22.6,11.2-29.8,26c-5.2,10.7-9,14.7-16.9,17.2c-6.7,2-13.9,1.5-20.3-1.5
	c-5.2-2.7-10.6-8.8-12.8-14.9C238.7,7.9,216.4-4,196.1,1.3c-14,3.5-23.4,11.2-29.6,24.5c-4.8,10.4-9.2,15.2-15.9,18.1
	c-8,3.5-18.2,2.1-25.1-2.7c-2.4-1.6-4.4-3.8-5.9-6.3c-1.9-3.2-3.5-6.3-5.1-9.5C108.3,12.3,97.6,9.9,83.9,7
	C79.5,6.2,47.2,4.3,23.8,4.5z"/>
<rect x="-1089.7" y="670.7" class="st1" width="1021.9" height="305.3"/>
<rect x="-904.8" y="510.2" class="st2" width="666.6" height="382.6"/>
<path class="st3" d="M21.8,0.7C10,0.8,0.4,10.4,0.4,22.1L0.3,52.2l-0.1,458h27.2c17.2,0,31.7-12.9,33.7-29.9l54.7-444.7
	c1.1-10.2-5.4-19.1-13.3-25.6c-5.2-4.2-11.2-7.2-18.3-8.7C79.9,0.3,45,0.4,21.8,0.7z"/>
<path class="st3" d="M719.7,1.2c-10.1,2.3-13.1,4.5-18.4,8.7c-8,6.4-14.5,15.4-13.3,25.6l54.7,444.7c2,17.1,16.5,29.9,33.7,29.9
	h27.2l-0.1-458l-0.1-30.1c0-11.7-9.6-21.3-21.3-21.5C782.1,0.7,729.8-1.1,719.7,1.2z"/>
</svg>
