<?xml version="1.0" encoding="utf-8"?>
<!-- Generator: Adobe Illustrator 24.1.2, SVG Export Plug-In . SVG Version: 6.00 Build 0)  -->
<svg version="1.1" id="Слой_1" xmlns="http://www.w3.org/2000/svg" xmlns:xlink="http://www.w3.org/1999/xlink" x="0px" y="0px"
	 viewBox="0 0 803.6 1150" style="enable-background:new 0 0 803.6 1150;" xml:space="preserve">
<style type="text/css">
	.st0{fill:#EFEFEF;}
	.st1{display:none;fill:#C90D0D;}
	.st2{display:none;fill:#7F0000;}
	.st3{fill:#C10000;}
</style>
<path class="st0" d="M102.6,123.3c-9.9,0.1-18.5,5.1-18.6,15L98,169.7L83.7,508.9c0,22.6,0,44.9,0,66.6l0.1,454.7h635.9
	c0.1-221.7,0.1-341.9,0-472.6V138.2c0-10-9.2-16.5-19.2-16.6l-12,0.3c-21.4-0.2-31.8-0.9-34.8-0.2c-11.4,2.4-19.4,7.8-25,19.6
	c-4,8.4-7,11.6-13,13.6c-4.3,1.4-8.4,1.5-13.4,0.2c-4.5-1.1-11.1-7.4-12.7-12.1c-5.7-16.4-23.9-26.4-40.2-22.2
	c-7,1.7-10.9,4-16.1,8.9c-3.9,3.7-9.5,12.7-9.5,15.2c0,1.5-5.9,7.4-8.9,8.9c-4.4,2.3-11.3,2.8-15.9,1.3c-6.3-2.1-9.3-5.2-13.5-13.8
	c-5.8-11.7-12.4-17.5-23.6-20.5c-11.8-3.1-25.1,0.9-33.5,10.3c-2.6,3.2-4.8,6.6-6.6,10.3c-3.6,7.6-6.1,10.3-11.8,13
	c-3.5,1.6-5.1,1.8-9.1,1.6c-9.1-0.6-14-4.4-18.8-14.6c-1.7-3.7-4-7.1-6.6-10.3c-8.4-9.3-21.7-13.4-33.5-10.3
	c-11,2.9-17.9,8.9-23.6,20.6c-4.1,8.5-7.1,11.6-13.4,13.6c-5.3,1.6-11,1.2-16.1-1.2c-4.1-2.1-8.4-7-10.1-11.8
	c-6.1-16-23.7-25.4-39.8-21.2c-11.1,2.8-18.5,8.9-23.4,19.4c-3.8,8.2-7.3,12-12.6,14.3c-6.3,2.8-14.4,1.7-19.9-2.1
	c-1.9-1.3-3.5-3-4.7-5c-1.5-2.5-2.8-5-4-7.5c-4.9-10.4-13.4-12.3-24.2-14.6C146.7,124.7,121.1,123.2,102.6,123.3z"/>
<rect x="-1089.7" y="670.7" class="st1" width="1021.9" height="305.3"/>
<rect x="-904.8" y="510.2" class="st2" width="666.6" height="382.6"/>
<path class="st3" d="M101,120.3c-9.3,0.1-16.9,7.7-16.9,17L84,161.1l-0.1,362.6h21.5c13.6,0,25.1-10.2,26.7-23.7l43.3-352.1
	c0.9-8.1-4.3-15.1-10.5-20.3c-4.1-3.3-8.9-5.7-14.5-6.9C147,120,119.4,120.1,101,120.3z"/>
<path class="st3" d="M653.5,120.7c-8,1.8-10.4,3.6-14.6,6.9c-6.3,5.1-11.5,12.2-10.5,20.3l43.3,352.1c1.6,13.5,13.1,23.7,26.7,23.7
	h21.5l-0.1-362.6l-0.1-23.8c0-9.3-7.6-16.9-16.9-17C702.9,120.3,661.5,118.9,653.5,120.7z"/>
</svg>
