<svg id="Слой_1" data-name="Слой 1" xmlns="http://www.w3.org/2000/svg" viewBox="0 0 803.7 2048.24"><defs><style>.cls-1{fill:#fff;}.cls-2{fill:#c10000;}</style></defs><path class="cls-1" d="M23.8,4.5C11.3,4.6.4,10.9.3,23.4L18,63.1-.1,491.5v84.1L0,2048.24H803.2c.1-1178.24.1-1330.14,0-1495.24V23.3c0-12.6-11.6-20.8-24.3-21l-15.2.4c-27-.3-40.2-1.1-44-.3-14.4,3-24.5,9.9-31.6,24.8-5.1,10.6-8.8,14.7-16.4,17.2-5.4,1.8-10.6,1.9-16.9.3-5.7-1.4-14-9.3-16-15.3C631.6,8.7,608.6-3.9,588,1.4c-8.8,2.1-13.8,5.1-20.3,11.2-4.9,4.7-12,16-12,19.2,0,1.9-7.5,9.3-11.2,11.2-5.6,2.9-14.3,3.5-20.1,1.6-8-2.7-11.7-6.6-17.1-17.4C500,12.4,491.6,5.1,477.5,1.3a43,43,0,0,0-42.3,13,61.06,61.06,0,0,0-8.3,13c-4.5,9.6-7.7,13-14.9,16.4-4.4,2-6.4,2.3-11.5,2-11.5-.8-17.7-5.6-23.7-18.4a61.06,61.06,0,0,0-8.3-13c-10.6-11.7-27.4-16.9-42.3-13-13.9,3.7-22.6,11.2-29.8,26-5.2,10.7-9,14.7-16.9,17.2A28.51,28.51,0,0,1,259.2,43a29.46,29.46,0,0,1-12.8-14.9C238.7,7.9,216.4-4,196.1,1.3c-14,3.5-23.4,11.2-29.6,24.5-4.8,10.4-9.2,15.2-15.9,18.1-8,3.5-18.2,2.1-25.1-2.7a19.76,19.76,0,0,1-5.9-6.3c-1.9-3.2-3.5-6.3-5.1-9.5C108.3,12.3,97.6,9.9,83.9,7,79.5,6.2,47.2,4.3,23.8,4.5Z" transform="translate(0.1 0)"/><path class="cls-2" d="M21.8.7A21.55,21.55,0,0,0,.4,22.1L.3,52.2l-.4,458H27.4a33.94,33.94,0,0,0,33.7-29.9L115.8,35.6c1.1-10.2-5.4-19.1-13.3-25.6A42.65,42.65,0,0,0,84.2,1.3C79.9.3,45,.4,21.8.7Z" transform="translate(0.1 0)"/><path class="cls-2" d="M719.7,1.2c-10.1,2.3-13.1,4.5-18.4,8.7-8,6.4-14.5,15.4-13.3,25.6l54.7,444.7a33.86,33.86,0,0,0,33.7,29.9h27.2l-.1-458L803.4,22A21.69,21.69,0,0,0,782.1.5C782.1.7,729.8-1.1,719.7,1.2Z" transform="translate(0.1 0)"/></svg>