<svg id="Слой_1" data-name="Слой 1" xmlns="http://www.w3.org/2000/svg" viewBox="0 0 803.57 1150.04"><defs><style>.cls-1{fill:#efefef;}</style></defs><path class="cls-1" d="M.36.82c-.3.5-.4,259.2-.3,574.8l.2,573.9,38.5.3c42.5.3,46.9-.1,56.5-5.1,9.1-4.8,14.8-11.1,20-22.1,5-10.5,9-14.5,17.1-17.3,8.8-3,20.3-.3,26.6,6.4,1.5,1.5,4.3,6.3,6.4,10.6,10.9,23.1,34.4,33.2,56.4,24.4,11.2-4.6,18.4-11.9,24.8-25.1,1.8-3.9,4.5-8.4,6-9.9,6.3-6.7,17.8-9.4,26.6-6.4,8,2.7,11.8,6.6,17.1,17.4,5.6,11.2,11,17.2,20.1,22,22.5,12,48.6,2.5,60.2-21.8,6.3-13.4,13.9-18.9,25.8-18.9,5.8,0,13.6,3.4,17.8,7.6,1.6,1.6,4.7,6.7,6.9,11.4,11.5,24.1,37.6,33.6,60.1,21.7,9.1-4.8,14.5-10.7,20-22,6.7-13.7,13.4-18.6,25.6-18.6a25.62,25.62,0,0,1,18.6,8.1c1.7,1.9,4.9,7.3,7.2,11.9,6.8,14.1,17.9,22.7,32.5,25.2,18.9,3.2,39.6-8.4,46.6-26.2,4.5-11.5,12.3-17.9,23-18.8,7.2-.7,12.9.9,18.3,5,3.3,2.5,5.4,5.6,9.2,13.2,7.5,15,16,22.4,29.9,26.1,4,1.1,14.4,1.4,44.8,1.4h39.7l.6-22.3c.4-12.2.5-270.8.4-574.7L803.26.52l-39-.3c-27-.2-40.7,0-44.5.9-14.4,3-24.4,11.3-31.5,26.2-5,10.6-8.9,14.6-16.4,17.2-5.4,1.8-10.6,1.9-16.9.3-5.7-1.4-14-9.3-16.1-15.3-7.2-20.7-30.2-33.4-50.8-28.1-8.8,2.2-13.8,5-20.3,11.2-4.9,4.7-12,16-12,19.2,0,1.9-7.5,9.4-11.3,11.3-5.6,2.9-14.3,3.6-20.1,1.6-8-2.7-11.8-6.6-17.1-17.4-7.3-14.8-15.7-22.1-29.8-25.9-14.9-3.9-31.7,1.2-42.3,13a62.11,62.11,0,0,0-8.3,13c-4.5,9.6-7.7,13-14.9,16.4-4.4,2-6.5,2.3-11.5,2-11.5-.8-17.7-5.6-23.8-18.4a62.11,62.11,0,0,0-8.3-13c-10.6-11.8-27.4-16.9-42.3-13-13.9,3.7-22.6,11.3-29.8,26-5.2,10.8-9,14.6-16.9,17.2a28.48,28.48,0,0,1-20.3-1.5c-5.2-2.6-10.6-8.8-12.8-14.9-7.6-20.2-29.9-32.1-50.2-26.8-14,3.5-23.4,11.3-29.6,24.5-4.8,10.3-9.2,15.2-15.9,18.1-10.2,4.4-23.9,1.1-30.1-7.3a87.67,87.67,0,0,1-6.2-11.2c-6.2-13.1-16.6-21.4-30.3-24.4C77.66-.18,1.16-.48.36.82Z" transform="translate(-0.02 0.02)"/></svg>